<?xml version="1.0" encoding="utf-8"?>
<!-- Generator: Adobe Illustrator 15.0.0, SVG Export Plug-In . SVG Version: 6.00 Build 0)  -->
<!DOCTYPE svg PUBLIC "-//W3C//DTD SVG 1.1//EN" "http://www.w3.org/Graphics/SVG/1.1/DTD/svg11.dtd">
<svg version="1.1" id="Layer_1" xmlns="http://www.w3.org/2000/svg" xmlns:xlink="http://www.w3.org/1999/xlink" x="0px" y="0px"
	 width="330.833px" height="222.719px" viewBox="0 0 330.833 222.719" enable-background="new 0 0 330.833 222.719"
	 xml:space="preserve">
<g>
	<rect x="196.901" y="174.657" fill="#202724" width="20.825" height="32.678"/>
	<path fill="#414042" d="M282.951,208.182l-75.638-9.201l-75.64,9.201c-3.334,0.404-5.813,2.83-5.813,5.691v8.789h13.546v-3.801
		l49.239-5.1l37.012,0.012l49.562,5.088v3.801h13.544v-8.789C288.763,211.012,286.289,208.586,282.951,208.182"/>
	<path fill="#414042" d="M329.951,51.291c-0.565-0.484-1.305-0.698-2.038-0.588c-0.373,0.055-240.829,0.054-241.193,0
		c-0.735-0.114-1.479,0.1-2.037,0.586c-0.563,0.479-0.891,1.185-0.891,1.926v132.897c0,0.715,0.303,1.393,0.828,1.877
		c0.471,0.428,1.08,0.666,1.714,0.666c0.076,0,0.152-0.004,0.229-0.014c0.431-0.039,241.042-0.037,241.521,0.004
		c0.714,0.055,1.41-0.186,1.93-0.666c0.521-0.48,0.819-1.158,0.819-1.867V53.214C330.833,52.474,330.51,51.77,329.951,51.291
		 M88.873,173.069L89.31,56.777l236.879-0.499l-0.436,116.81L88.873,173.069z"/>
	<polygon fill="#EEEFEF" points="88.873,173.069 89.31,56.279 326.188,56.278 326.188,173.088 	"/>
	<path fill="#414042" d="M203.2,89.324c-0.729,1.325-1.301,2.729-1.704,4.182l-3.381,0.391c-1.104,0.127-1.928,1.062-1.934,2.166
		v5.151c0,1.11,0.83,2.038,1.934,2.166l3.357,0.388c0.407,1.519,0.998,2.979,1.764,4.352l-2.128,2.691
		c-0.692,0.872-0.619,2.118,0.161,2.899l3.645,3.645c0.78,0.779,2.026,0.854,2.897,0.164l2.597-2.058
		c1.447,0.849,2.991,1.501,4.6,1.954l0.377,3.246c0.132,1.104,1.063,1.928,2.167,1.935h5.149c1.108,0,2.04-0.832,2.169-1.935
		l0.377-3.197c1.599-0.43,3.138-1.051,4.571-1.873l2.422,1.918c0.873,0.69,2.117,0.619,2.898-0.161l3.644-3.646
		c0.78-0.779,0.852-2.025,0.164-2.897l-1.891-2.394c0.823-1.408,1.453-2.914,1.891-4.477l2.984-0.347
		c1.104-0.129,1.93-1.062,1.937-2.168v-5.135c0-1.114-0.833-2.041-1.937-2.169l-2.898-0.335c-0.431-1.665-1.084-3.259-1.944-4.751
		l1.848-2.338c0.69-0.873,0.616-2.118-0.164-2.899l-3.642-3.643c-0.783-0.782-2.027-0.855-2.898-0.166l-2.34,1.848
		c-1.53-0.883-3.174-1.549-4.886-1.983l-0.352-3.007c-0.127-1.104-1.061-1.928-2.165-1.932h-5.148c-1.113,0-2.04,0.828-2.167,1.932
		l-0.371,3.182c-1.576,0.449-3.086,1.102-4.487,1.945l-2.504-1.989c-0.871-0.691-2.117-0.618-2.897,0.164l-3.645,3.643
		c-0.778,0.782-0.854,2.027-0.163,2.899L203.2,89.324z M226.255,92.669c3.32,3.321,3.32,8.727,0,12.047
		c-3.318,3.319-8.727,3.319-12.045,0c-3.321-3.32-3.321-8.726,0-12.047C217.528,89.351,222.937,89.351,226.255,92.669"/>
	<path fill="#414042" d="M251.518,139.44l-0.298-3.547c-0.091-1.094-0.99-1.941-2.083-1.973l-2.055-0.065
		c-0.464-1.328-1.108-2.587-1.917-3.747l1.166-1.764c0.602-0.908,0.43-2.135-0.402-2.842l-2.722-2.297
		c-0.837-0.701-2.065-0.676-2.87,0.073l-1.537,1.438c-1.312-0.615-2.695-1.049-4.123-1.281l-0.429-2.106
		c-0.218-1.076-1.201-1.813-2.292-1.724l-3.559,0.311c-1.093,0.092-1.942,0.99-1.971,2.084l-0.075,2.291
		c-1.251,0.483-2.435,1.117-3.527,1.892l-1.908-1.261c-0.91-0.604-2.135-0.43-2.843,0.398l-2.296,2.725
		c-0.701,0.838-0.675,2.068,0.071,2.869l1.66,1.77c-0.505,1.128-0.871,2.314-1.102,3.529l-2.404,0.492
		c-1.076,0.218-1.813,1.201-1.723,2.295l0.299,3.545c0.091,1.093,0.99,1.939,2.079,1.971l2.437,0.077
		c0.439,1.21,1.02,2.363,1.738,3.427l-1.372,2.067c-0.604,0.907-0.427,2.135,0.405,2.845l2.72,2.291
		c0.837,0.703,2.067,0.682,2.867-0.068l1.74-1.631c1.238,0.592,2.545,1.018,3.886,1.277l0.473,2.299
		c0.22,1.073,1.201,1.811,2.296,1.721l3.543-0.299c1.093-0.092,1.938-0.986,1.971-2.082l0.067-2.299
		c1.273-0.457,2.488-1.078,3.601-1.842l1.837,1.213c0.91,0.604,2.135,0.424,2.842-0.406l2.295-2.721
		c0.702-0.832,0.677-2.068-0.071-2.868l-1.486-1.581c0.574-1.207,0.988-2.477,1.24-3.788l2.094-0.423
		C250.866,141.518,251.61,140.531,251.518,139.44 M227.565,144.485c-2.941-2.475-3.312-6.891-0.828-9.823
		c2.476-2.941,6.89-3.316,9.826-0.833c2.939,2.48,3.313,6.893,0.828,9.828C234.914,146.598,230.502,146.969,227.565,144.485"/>
	<path fill="#414042" d="M189.831,120.249c-0.85-0.691-2.09-0.638-2.872,0.133l-1.562,1.525c-0.787,0.762-0.871,1.995-0.198,2.861
		l0.985,1.281c-0.498,0.88-0.886,1.807-1.162,2.777l-1.639,0.172c-1.091,0.115-1.921,1.019-1.932,2.118l-0.026,2.183
		c-0.011,1.1,0.794,2.026,1.885,2.166l1.612,0.209c0.262,1.019,0.643,1.995,1.142,2.91l-1.051,1.293
		c-0.689,0.848-0.634,2.09,0.136,2.87l1.524,1.562c0.764,0.787,1.995,0.871,2.864,0.202l1.248-0.97
		c0.962,0.577,1.978,1.023,3.054,1.341l0.163,1.544c0.115,1.091,1.021,1.921,2.118,1.936l2.187,0.021
		c1.098,0.014,2.024-0.793,2.164-1.884l0.196-1.501c1.074-0.268,2.099-0.673,3.063-1.207l1.116,0.91
		c0.848,0.688,2.088,0.633,2.868-0.137l1.563-1.524c0.787-0.765,0.873-1.997,0.2-2.863l-0.86-1.116
		c0.555-0.935,0.994-1.936,1.301-2.973l1.371-0.142c1.096-0.114,1.924-1.019,1.937-2.118l0.023-2.182
		c0.013-1.1-0.791-2.027-1.885-2.169l-1.304-0.169c-0.276-1.116-0.697-2.186-1.26-3.187l0.862-1.054
		c0.688-0.85,0.632-2.086-0.136-2.871l-1.526-1.559c-0.764-0.787-1.995-0.873-2.861-0.203l-1.074,0.828
		c-1.016-0.592-2.104-1.054-3.24-1.359l-0.141-1.385c-0.118-1.094-1.02-1.924-2.117-1.935l-2.197-0.028
		c-1.098-0.008-2.027,0.796-2.167,1.889l-0.189,1.497c-1.049,0.289-2.062,0.705-3.011,1.261L189.831,120.249z M201.539,128.467
		c2.191,2.24,2.142,5.841-0.097,8.031c-2.24,2.189-5.841,2.139-8.032-0.102c-2.19-2.236-2.141-5.836,0.1-8.027
		C195.75,126.176,199.349,126.226,201.539,128.467"/>
	<path fill="#414042" d="M297.816,96.955c-0.271,0.498-0.487,1.028-0.641,1.576l-1.272,0.146c-0.416,0.046-0.729,0.4-0.73,0.817
		v1.938c0,0.419,0.314,0.769,0.73,0.815l1.26,0.148c0.157,0.571,0.382,1.121,0.668,1.639l-0.8,1.013
		c-0.261,0.329-0.232,0.799,0.061,1.092l1.374,1.372c0.293,0.296,0.761,0.32,1.089,0.061l0.979-0.771
		c0.544,0.318,1.126,0.563,1.731,0.733l0.138,1.223c0.055,0.417,0.405,0.727,0.822,0.729h1.938c0.418,0,0.768-0.312,0.816-0.729
		l0.143-1.203c0.602-0.162,1.182-0.398,1.719-0.704l0.912,0.721c0.332,0.259,0.798,0.235,1.093-0.062l1.374-1.374
		c0.291-0.291,0.321-0.761,0.063-1.09l-0.714-0.901c0.311-0.53,0.548-1.098,0.714-1.688l1.123-0.13
		c0.416-0.048,0.725-0.399,0.729-0.814v-1.936c0-0.419-0.313-0.769-0.729-0.815l-1.093-0.128c-0.166-0.627-0.407-1.228-0.731-1.791
		l0.694-0.881c0.261-0.324,0.233-0.794-0.063-1.091l-1.369-1.374c-0.293-0.293-0.766-0.319-1.093-0.062l-0.88,0.697
		c-0.576-0.333-1.197-0.584-1.842-0.748l-0.131-1.13c-0.048-0.418-0.399-0.729-0.815-0.729h-1.942c-0.417,0-0.766,0.311-0.813,0.729
		l-0.14,1.197c-0.594,0.169-1.165,0.414-1.688,0.732l-0.944-0.748c-0.328-0.26-0.796-0.234-1.089,0.062l-1.374,1.371
		c-0.293,0.296-0.321,0.765-0.063,1.093L297.816,96.955z M306.5,98.215c1.253,1.25,1.253,3.285,0,4.538
		c-1.249,1.25-3.286,1.25-4.535,0c-1.253-1.253-1.253-3.289,0-4.538C303.214,96.966,305.251,96.966,306.5,98.215"/>
	<path fill="#414042" d="M316.016,115.829l-0.112-1.332c-0.035-0.414-0.375-0.734-0.783-0.746l-0.776-0.026
		c-0.175-0.501-0.416-0.972-0.72-1.409l0.438-0.664c0.229-0.342,0.16-0.803-0.15-1.07l-1.024-0.866
		c-0.315-0.263-0.778-0.254-1.083,0.029l-0.577,0.541c-0.496-0.232-1.019-0.393-1.553-0.481l-0.164-0.794
		c-0.08-0.404-0.453-0.683-0.86-0.648l-1.344,0.116c-0.411,0.036-0.73,0.373-0.741,0.784l-0.026,0.866
		c-0.472,0.181-0.918,0.419-1.328,0.71l-0.72-0.475c-0.343-0.227-0.805-0.162-1.069,0.15l-0.865,1.026
		c-0.265,0.314-0.254,0.78,0.026,1.08l0.625,0.666c-0.189,0.428-0.328,0.871-0.416,1.329l-0.905,0.185
		c-0.406,0.082-0.682,0.453-0.647,0.865l0.112,1.335c0.034,0.411,0.371,0.733,0.782,0.741l0.919,0.033
		c0.164,0.455,0.382,0.886,0.653,1.287l-0.516,0.78c-0.229,0.341-0.163,0.804,0.151,1.071l1.024,0.865
		c0.314,0.263,0.78,0.254,1.08-0.03l0.655-0.612c0.466,0.225,0.957,0.384,1.462,0.482l0.179,0.865
		c0.085,0.403,0.451,0.684,0.863,0.646l1.339-0.111c0.409-0.033,0.729-0.371,0.741-0.783l0.024-0.867
		c0.482-0.174,0.939-0.405,1.356-0.693l0.691,0.457c0.343,0.229,0.805,0.159,1.072-0.151l0.86-1.026
		c0.263-0.314,0.256-0.778-0.024-1.08l-0.561-0.598c0.218-0.453,0.375-0.932,0.468-1.426l0.79-0.156
		C315.77,116.614,316.05,116.243,316.016,115.829 M306.995,117.731c-1.107-0.936-1.248-2.597-0.313-3.701
		c0.932-1.109,2.597-1.248,3.7-0.314c1.108,0.934,1.249,2.596,0.311,3.701C309.762,118.524,308.1,118.667,306.995,117.731"/>
	<path fill="#414042" d="M292.779,108.601c-0.317-0.261-0.78-0.238-1.078,0.051l-0.587,0.573c-0.297,0.288-0.332,0.751-0.077,1.078
		l0.373,0.483c-0.188,0.329-0.336,0.681-0.438,1.045l-0.617,0.066c-0.411,0.042-0.725,0.385-0.729,0.798l-0.009,0.823
		c-0.004,0.413,0.298,0.763,0.707,0.814l0.608,0.08c0.1,0.381,0.243,0.75,0.432,1.095l-0.397,0.485
		c-0.256,0.323-0.237,0.789,0.052,1.082l0.574,0.592c0.286,0.293,0.75,0.322,1.078,0.07l0.47-0.364
		c0.362,0.22,0.746,0.388,1.149,0.507l0.063,0.582c0.043,0.412,0.384,0.725,0.798,0.727l0.823,0.009
		c0.414,0.007,0.762-0.298,0.815-0.707l0.075-0.567c0.403-0.102,0.789-0.252,1.153-0.455l0.421,0.344
		c0.319,0.258,0.785,0.238,1.078-0.051l0.589-0.575c0.298-0.289,0.328-0.751,0.075-1.08l-0.321-0.419
		c0.207-0.352,0.373-0.729,0.487-1.119l0.518-0.053c0.41-0.044,0.725-0.385,0.729-0.797l0.009-0.822
		c0.007-0.415-0.3-0.763-0.709-0.817l-0.492-0.064c-0.104-0.421-0.261-0.824-0.474-1.201l0.325-0.398
		c0.261-0.32,0.239-0.786-0.052-1.079l-0.575-0.588c-0.287-0.297-0.751-0.329-1.076-0.078l-0.405,0.314
		c-0.384-0.226-0.794-0.397-1.223-0.512l-0.055-0.521c-0.038-0.413-0.381-0.725-0.795-0.729l-0.826-0.011
		c-0.414-0.004-0.768,0.3-0.815,0.71l-0.07,0.563c-0.395,0.111-0.779,0.267-1.133,0.475L292.779,108.601z M297.193,111.696
		c0.825,0.843,0.807,2.202-0.037,3.025c-0.843,0.827-2.199,0.806-3.022-0.037c-0.826-0.844-0.811-2.2,0.034-3.025
		C295.011,110.835,296.369,110.853,297.193,111.696"/>
	<rect x="264.441" y="65.126" fill="#EF7922" width="51.578" height="7.753"/>
	<rect x="283.781" y="75.524" fill="#EF7922" width="32.238" height="7.753"/>
	<rect x="267.306" y="160.243" fill="#808082" width="34.146" height="3.343"/>
	<rect x="267.306" y="152.442" fill="#808082" width="48.714" height="3.342"/>
	<rect x="267.306" y="144.641" fill="#808082" width="48.714" height="3.342"/>
	<rect x="267.306" y="136.839" fill="#808082" width="48.714" height="3.345"/>
	<rect x="267.306" y="129.042" fill="#808082" width="48.714" height="3.343"/>
	<path fill="#808082" d="M132.393,132.266h-16.179c-0.146,0-0.263-0.119-0.263-0.264v-16.178c0-0.146,0.117-0.266,0.263-0.266
		h16.179c0.146,0,0.263,0.119,0.263,0.266v16.178C132.655,132.147,132.538,132.266,132.393,132.266 M116.478,131.738h15.652v-15.65
		h-15.652V131.738z"/>
	<path fill="#808082" d="M132.393,116.109h-16.179c-0.146,0-0.263-0.116-0.263-0.263v-16.18c0-0.146,0.117-0.265,0.263-0.265h16.179
		c0.146,0,0.263,0.12,0.263,0.265v16.18C132.655,115.993,132.538,116.109,132.393,116.109 M116.478,115.583h15.652V99.932h-15.652
		V115.583z"/>
	<path fill="#808082" d="M132.393,99.953h-16.179c-0.146,0-0.263-0.118-0.263-0.265V83.511c0-0.149,0.117-0.265,0.263-0.265h16.179
		c0.146,0,0.263,0.116,0.263,0.265v16.177C132.655,99.835,132.538,99.953,132.393,99.953 M116.478,99.424h15.652v-15.65h-15.652
		V99.424z"/>
	<path fill="#808082" d="M148.573,116.135h-16.181c-0.146,0-0.263-0.123-0.263-0.268v-16.18c0-0.146,0.117-0.264,0.263-0.264h16.181
		c0.147,0,0.262,0.119,0.262,0.264v16.18C148.835,116.012,148.721,116.135,148.573,116.135 M132.655,115.604h15.652V99.953h-15.652
		V115.604z"/>
	<path fill="#808082" d="M148.573,99.974h-16.181c-0.146,0-0.263-0.117-0.263-0.263V83.532c0-0.147,0.117-0.265,0.263-0.265h16.181
		c0.147,0,0.262,0.118,0.262,0.265v16.179C148.835,99.856,148.721,99.974,148.573,99.974 M132.655,99.445h15.652v-15.65h-15.652
		V99.445z"/>
	<path fill="#808082" d="M116.15,116.066H99.968c-0.144,0-0.263-0.116-0.263-0.263V99.623c0-0.144,0.119-0.263,0.263-0.263h16.183
		c0.144,0,0.263,0.12,0.263,0.263v16.181C116.413,115.95,116.294,116.066,116.15,116.066 M100.235,115.538h15.65v-15.65h-15.65
		V115.538z"/>
	<path fill="#808082" d="M116.15,99.907H99.968c-0.144,0-0.263-0.115-0.263-0.263V83.467c0-0.146,0.119-0.266,0.263-0.266h16.183
		c0.144,0,0.263,0.12,0.263,0.266v16.177C116.413,99.792,116.294,99.907,116.15,99.907 M100.235,99.382h15.65V83.729h-15.65V99.382z
		"/>
	<rect x="130.547" y="74.561" fill="#414042" width="23.956" height="0.923"/>
	<rect x="141.448" y="107.81" fill="#414042" width="24.88" height="0.921"/>
	<rect x="120.217" y="127.158" fill="#414042" width="24.877" height="0.923"/>
	<rect x="124.156" y="89.998" fill="#414042" width="44.206" height="0.92"/>
	<polygon fill="#808082" points="115.735,116.038 99.906,100.211 100.56,99.562 116.387,115.389 	"/>
	
		<rect x="112.964" y="91.159" transform="matrix(0.7071 0.7071 -0.7071 0.7071 101.1513 -60.9567)" fill="#808082" width="22.382" height="0.92"/>
	<polygon fill="#808082" points="126.987,99.858 115.916,88.732 116.373,88.273 127.444,99.399 	"/>
	
		<rect x="114.841" y="96.602" transform="matrix(0.7105 0.7037 -0.7037 0.7105 102.5483 -55.7063)" fill="#808082" width="8.264" height="0.341"/>
	<path fill="#808082" d="M121.249,166.086h-10.663c-0.097,0-0.174-0.072-0.174-0.172V155.25c0-0.095,0.077-0.171,0.174-0.171h10.663
		c0.097,0,0.172,0.076,0.172,0.171v10.665C121.421,166.014,121.346,166.086,121.249,166.086 M110.759,165.742h10.317v-10.315
		h-10.317V165.742z"/>
	<path fill="#808082" d="M121.249,155.44h-10.663c-0.097,0-0.174-0.078-0.174-0.174v-10.662c0-0.098,0.077-0.175,0.174-0.175h10.663
		c0.097,0,0.172,0.077,0.172,0.175v10.662C121.421,155.362,121.346,155.44,121.249,155.44 M110.759,155.092h10.317v-10.313h-10.317
		V155.092z"/>
	<path fill="#808082" d="M131.913,166.104h-10.664c-0.098,0-0.173-0.078-0.173-0.177v-10.661c0-0.094,0.075-0.174,0.173-0.174
		h10.664c0.093,0,0.172,0.08,0.172,0.174v10.661C132.085,166.026,132.006,166.104,131.913,166.104 M121.421,165.754h10.318V155.44
		h-10.318V165.754z"/>
	<path fill="#808082" d="M131.913,155.454h-10.664c-0.098,0-0.173-0.076-0.173-0.172v-10.664c0-0.096,0.075-0.174,0.173-0.174
		h10.664c0.093,0,0.172,0.078,0.172,0.174v10.664C132.085,155.377,132.006,155.454,131.913,155.454 M121.421,155.107h10.318v-10.313
		h-10.318V155.107z"/>
	<path fill="#808082" d="M110.544,166.059H99.88c-0.098,0-0.175-0.076-0.175-0.173v-10.663c0-0.094,0.077-0.172,0.175-0.172h10.664
		c0.098,0,0.173,0.078,0.173,0.172v10.663C110.717,165.983,110.642,166.059,110.544,166.059 M100.054,165.711h10.316v-10.311
		h-10.316V165.711z"/>
	<path fill="#808082" d="M110.544,155.414H99.88c-0.098,0-0.175-0.082-0.175-0.177v-10.665c0-0.095,0.077-0.173,0.175-0.173h10.664
		c0.098,0,0.173,0.078,0.173,0.173v10.665C110.717,155.332,110.642,155.414,110.544,155.414 M100.054,155.064h10.316v-10.315
		h-10.316V155.064z"/>
	<path fill="#808082" d="M153.364,166.086h-10.662c-0.096,0-0.173-0.072-0.173-0.172V155.25c0-0.095,0.077-0.171,0.173-0.171h10.662
		c0.098,0,0.175,0.076,0.175,0.171v10.665C153.539,166.014,153.462,166.086,153.364,166.086 M142.876,165.742h10.316v-10.315
		h-10.316V165.742z"/>
	<path fill="#808082" d="M153.364,155.44h-10.662c-0.096,0-0.173-0.078-0.173-0.174v-10.662c0-0.098,0.077-0.175,0.173-0.175h10.662
		c0.098,0,0.175,0.077,0.175,0.175v10.662C153.539,155.362,153.462,155.44,153.364,155.44 M142.876,155.092h10.316v-10.313h-10.316
		V155.092z"/>
	<path fill="#808082" d="M164.029,166.104h-10.665c-0.095,0-0.172-0.078-0.172-0.177v-10.661c0-0.094,0.077-0.174,0.172-0.174
		h10.665c0.095,0,0.171,0.08,0.171,0.174v10.661C164.2,166.026,164.124,166.104,164.029,166.104 M153.539,165.754h10.315V155.44
		h-10.315V165.754z"/>
	<path fill="#808082" d="M164.029,155.454h-10.665c-0.095,0-0.172-0.076-0.172-0.172v-10.664c0-0.096,0.077-0.174,0.172-0.174
		h10.665c0.095,0,0.171,0.078,0.171,0.174v10.664C164.2,155.377,164.124,155.454,164.029,155.454 M153.539,155.107h10.315v-10.313
		h-10.315V155.107z"/>
	<path fill="#808082" d="M142.657,166.059h-10.662c-0.096,0-0.173-0.076-0.173-0.173v-10.663c0-0.094,0.077-0.172,0.173-0.172
		h10.662c0.098,0,0.177,0.078,0.177,0.172v10.663C142.834,165.983,142.755,166.059,142.657,166.059 M132.169,165.711h10.316v-10.311
		h-10.316V165.711z"/>
	<path fill="#808082" d="M142.657,155.414h-10.662c-0.096,0-0.173-0.082-0.173-0.177v-10.665c0-0.095,0.077-0.173,0.173-0.173
		h10.662c0.098,0,0.177,0.078,0.177,0.173v10.665C142.834,155.332,142.755,155.414,142.657,155.414 M132.169,155.064h10.316v-10.315
		h-10.316V155.064z"/>
	<rect x="101.432" y="156.959" fill="#EF7922" width="7.324" height="7.322"/>
	<rect x="112.377" y="156.959" fill="#5FBD97" width="7.321" height="7.322"/>
	<rect x="123.32" y="156.959" fill="#0296A6" width="7.321" height="7.322"/>
	<rect x="154.958" y="156.959" fill="#EF7922" width="7.324" height="7.322"/>
	<rect x="144.273" y="146.372" fill="#5FBD97" width="7.324" height="7.323"/>
	<rect x="112.377" y="146.292" fill="#EF7922" width="7.324" height="7.323"/>
	<rect x="75.537" y="100.031" fill-rule="evenodd" clip-rule="evenodd" fill="#E7D5B6" width="27.286" height="27.899"/>
	<path fill-rule="evenodd" clip-rule="evenodd" fill="#FFEAC7" d="M129.685,66.151c-0.541,0-1.06,0.276-1.534,0.769
		c-0.038-0.17-0.075-0.343-0.111-0.51c-0.072-0.325-0.142-0.651-0.221-0.975c-0.079-0.324-0.17-0.645-0.26-0.962
		c-0.084-0.303-0.157-0.602-0.248-0.899c-0.098-0.335-0.214-0.662-0.322-0.992c-0.093-0.278-0.177-0.559-0.274-0.832
		c-0.118-0.342-0.253-0.684-0.386-1.024c-0.095-0.251-0.186-0.503-0.284-0.75c-0.146-0.354-0.301-0.7-0.453-1.051
		c-0.102-0.227-0.198-0.461-0.303-0.687c-0.165-0.356-0.344-0.706-0.521-1.056c-0.101-0.214-0.204-0.426-0.313-0.638
		c-0.191-0.362-0.393-0.717-0.594-1.073c-0.104-0.189-0.2-0.377-0.312-0.561c-0.214-0.373-0.443-0.735-0.669-1.098
		c-0.104-0.164-0.2-0.329-0.31-0.49c-0.238-0.373-0.491-0.74-0.746-1.106c-0.099-0.143-0.195-0.287-0.297-0.428
		c-0.268-0.375-0.544-0.742-0.824-1.108c-0.1-0.124-0.192-0.25-0.287-0.371c-0.296-0.375-0.604-0.739-0.907-1.102
		c-0.091-0.109-0.179-0.217-0.273-0.32c-0.322-0.373-0.649-0.735-0.988-1.093c-0.08-0.088-0.165-0.181-0.249-0.27
		c-0.349-0.367-0.707-0.725-1.068-1.075c-0.077-0.076-0.157-0.151-0.229-0.226c-0.381-0.362-0.765-0.711-1.155-1.058
		c-0.068-0.057-0.132-0.118-0.198-0.175c-0.409-0.354-0.824-0.697-1.246-1.035c-0.05-0.044-0.107-0.093-0.162-0.137
		c-0.434-0.34-0.878-0.674-1.325-0.996c-0.049-0.036-0.091-0.071-0.139-0.104c-0.462-0.331-0.93-0.649-1.405-0.958
		c-0.036-0.022-0.074-0.048-0.105-0.071c-0.488-0.315-0.98-0.616-1.481-0.907c-0.029-0.019-0.059-0.036-0.084-0.053
		c-0.513-0.296-1.03-0.579-1.553-0.853c-0.02-0.011-0.038-0.021-0.06-0.034c-0.53-0.271-1.07-0.537-1.616-0.788
		c-0.014-0.004-0.026-0.008-0.037-0.015c-0.555-0.254-1.115-0.493-1.684-0.722c-0.004-0.004-0.011-0.004-0.015-0.006
		c-3.449-1.382-7.136-2.263-10.983-2.568h-0.008c-0.639-0.05-1.277-0.084-1.922-0.101h-0.013c-0.35-0.009-0.7-0.029-1.051-0.029
		c-18.318,0-33.637,13.136-37.57,30.74c-0.258-0.129-0.529-0.203-0.805-0.203c-2.25,0-4.081,4.654-4.081,10.395
		c0,5.741,1.831,10.397,4.081,10.397c0.477,0,0.93-0.219,1.357-0.598c4.666,16.494,19.469,28.554,37.018,28.554
		c0.351,0,0.701-0.015,1.051-0.027h0.013c0.645-0.018,1.283-0.052,1.922-0.1c0.004,0,0.004-0.004,0.008-0.004
		c3.848-0.303,7.534-1.184,10.983-2.565c0.004-0.002,0.011-0.006,0.015-0.009c0.568-0.225,1.129-0.463,1.684-0.72
		c0.011-0.006,0.023-0.011,0.037-0.015c0.546-0.251,1.086-0.514,1.616-0.792c0.021-0.008,0.04-0.018,0.06-0.029
		c0.522-0.274,1.04-0.557,1.553-0.852c0.025-0.018,0.055-0.035,0.084-0.05c0.501-0.294,0.993-0.596,1.481-0.91
		c0.031-0.022,0.069-0.048,0.105-0.071c0.476-0.312,0.943-0.629,1.405-0.956c0.048-0.037,0.09-0.07,0.139-0.105
		c0.447-0.325,0.892-0.656,1.325-1.001c0.055-0.044,0.112-0.088,0.162-0.132c0.422-0.337,0.837-0.679,1.246-1.035
		c0.066-0.055,0.13-0.118,0.198-0.174c0.391-0.346,0.774-0.696,1.155-1.06c0.072-0.072,0.152-0.147,0.229-0.221
		c0.361-0.354,0.72-0.708,1.068-1.075c0.084-0.09,0.169-0.183,0.249-0.271c0.339-0.36,0.666-0.72,0.988-1.093
		c0.095-0.104,0.183-0.214,0.273-0.32c0.304-0.364,0.611-0.729,0.907-1.1c0.095-0.125,0.188-0.251,0.287-0.377
		c0.28-0.362,0.557-0.729,0.824-1.104c0.102-0.139,0.198-0.285,0.297-0.428c0.255-0.366,0.508-0.733,0.746-1.104
		c0.109-0.164,0.206-0.329,0.31-0.49c0.226-0.365,0.455-0.731,0.669-1.098c0.111-0.186,0.208-0.377,0.312-0.561
		c0.201-0.356,0.402-0.713,0.594-1.077c0.109-0.208,0.213-0.424,0.313-0.636c0.178-0.349,0.356-0.697,0.521-1.055
		c0.104-0.228,0.201-0.459,0.303-0.689c0.152-0.346,0.307-0.693,0.453-1.049c0.099-0.247,0.189-0.499,0.284-0.75
		c0.133-0.341,0.268-0.681,0.386-1.026c0.098-0.274,0.182-0.552,0.274-0.828c0.108-0.332,0.225-0.661,0.322-0.996
		c0.091-0.295,0.164-0.599,0.248-0.897c0.044-0.147,0.078-0.297,0.12-0.445c0.59,0.852,1.277,1.346,2.006,1.346
		c2.254,0,4.087-4.656,4.087-10.397C133.771,70.805,131.938,66.151,129.685,66.151"/>
	<path fill-rule="evenodd" clip-rule="evenodd" fill="#6BABE2" d="M179.459,215.418c0-33.949-13.208-68.125-31.437-78.904
		c-10.809-7.109-30.131-12.068-58.285-12.068c-28.022,0-48.874,4.909-59.754,11.967C11.629,147.073,0,181.362,0,215.418v7.24h32.582
		v-7.24c0-22.416,7.236-36.381,11.759-43.406v50.646h90.389v-48.732c4.983,7.518,12.146,20.955,12.146,41.492v7.24h32.583V215.418z"
		/>
	<path fill-rule="evenodd" clip-rule="evenodd" fill="#603913" d="M127.55,64.433c-0.126-0.446-0.285-0.874-0.422-1.312
		c-0.199-0.637-0.387-1.284-0.619-1.912c-0.204-0.554-0.449-1.089-0.675-1.629c-0.203-0.488-0.394-0.985-0.616-1.459
		c-0.287-0.625-0.622-1.224-0.942-1.827c-0.195-0.371-0.373-0.748-0.581-1.113c-0.384-0.671-0.806-1.314-1.229-1.958
		c-0.173-0.271-0.335-0.552-0.519-0.818c-0.482-0.701-0.998-1.367-1.522-2.037c-0.146-0.186-0.283-0.384-0.433-0.569
		c-0.586-0.716-1.201-1.4-1.837-2.071c-0.107-0.115-0.206-0.234-0.314-0.352c-0.687-0.71-1.409-1.393-2.146-2.05
		c-0.062-0.058-0.123-0.118-0.188-0.175c-0.786-0.693-1.604-1.352-2.444-1.98c-0.017-0.011-0.037-0.031-0.059-0.044
		c-6.342-4.717-14.12-7.512-22.546-7.512c-20.747,0-37.658,16.849-38.518,37.96c2.438-2.773,3.915-6.695,6.28-9.424
		c3.952-4.555,8.982-7.728,13.391-11.798c3.045-2.809,8.18-3.274,11.159,0c2.33,2.559,5.37,5.02,8.737,6.91h0.002
		c1.109,0.62,2.244,1.172,3.412,1.65c0.121,0.052,0.247,0.103,0.371,0.151c0.357,0.139,0.715,0.276,1.075,0.399
		c0.071,0.027,0.139,0.045,0.208,0.067c0.635,0.215,1.277,0.402,1.922,0.561c0.274,0.067,0.55,0.128,0.824,0.186
		c0.263,0.053,0.523,0.111,0.786,0.155c0.492,0.085,0.987,0.148,1.473,0.196c0.212,0.015,0.425,0.026,0.632,0.04
		c0.408,0.023,0.817,0.034,1.226,0.03c0.154,0,0.315,0.008,0.475,0c0.537-0.017,1.072-0.068,1.609-0.139
		c0.156-0.021,0.312-0.049,0.464-0.075c0.499-0.08,0.994-0.185,1.483-0.316c0.071-0.021,0.144-0.031,0.212-0.055
		c0.552-0.158,1.094-0.356,1.627-0.579c0.135-0.053,0.266-0.114,0.396-0.172c0.544-0.247,1.083-0.514,1.61-0.837
		c3.758-2.281,8.554-0.763,10.8,2.833c1.045,1.675,3.645,3.137,6.204,4.42C128.108,66.646,127.852,65.529,127.55,64.433"/>
	<path fill-rule="evenodd" clip-rule="evenodd" fill="#F1A240" d="M132.483,53.901c-0.047-0.316-0.122-0.634-0.224-0.96
		c-0.69-2.212-2.525-8.79-2.525-11.19c0-18.684-17.481-33.838-39.049-33.838c-21.568,0-39.051,15.154-39.051,33.838
		c0,2.104-1.898,8.539-3.23,12.15H132.483z"/>
	<path fill-rule="evenodd" clip-rule="evenodd" fill="#F1A240" d="M90.104,20.19c5.558,0,10.093-4.534,10.093-10.094
		S95.662,0,90.104,0C84.54,0,80.008,4.536,80.008,10.096S84.54,20.19,90.104,20.19"/>
	<path fill-rule="evenodd" clip-rule="evenodd" fill="#D08D35" d="M67.636,14.436c3.515-2.23,7.483-3.963,11.754-5.081
		c0.276,0.694,0.428,1.449,0.428,2.237v27.159c0,3.351-2.738,6.089-6.088,6.089c-3.354,0-6.094-2.738-6.094-6.089V14.436z"/>
	<path fill-rule="evenodd" clip-rule="evenodd" fill="#D08D35" d="M100.924,9.094c4.206,0.987,8.133,2.566,11.644,4.63V38.75
		c0,3.352-2.743,6.092-6.092,6.092c-3.352,0-6.088-2.74-6.088-6.092V11.593C100.388,10.704,100.579,9.856,100.924,9.094"/>
	<path fill-rule="evenodd" clip-rule="evenodd" fill="#D08D35" d="M134.9,54.444c0,1.797-1.416,3.257-3.16,3.257H49.142
		c-1.74,0-3.157-1.46-3.157-3.257c0-1.801,1.417-3.259,3.157-3.259h82.599C133.484,51.185,134.9,52.643,134.9,54.444"/>
	<path fill-rule="evenodd" clip-rule="evenodd" fill="#FFFFFF" d="M72.1,125.098l17.591,55.951l16.315-56.045
		c0,0-2.546-0.594-15.452-0.594C77.65,124.411,72.1,125.098,72.1,125.098"/>
	<path fill-rule="evenodd" clip-rule="evenodd" fill="#662D91" d="M98.653,126.268c0,2.885-3.923,5.223-8.768,5.223
		c-4.842,0-8.766-2.338-8.766-5.223c0-2.889,3.924-5.23,8.766-5.23C94.73,121.038,98.653,123.379,98.653,126.268"/>
	<polygon fill-rule="evenodd" clip-rule="evenodd" fill="#662D91" points="86.922,127.674 83.054,163.313 89.756,181.219 
		95.478,163.417 92.42,127.776 	"/>
	<rect x="103.399" y="180.34" fill-rule="evenodd" clip-rule="evenodd" fill="#FFFFFF" width="23.354" height="12.486"/>
	<polygon fill-rule="evenodd" clip-rule="evenodd" fill="#268ABC" points="106.007,125.001 120.133,139.2 89.689,181.051 	"/>
	<polygon fill-rule="evenodd" clip-rule="evenodd" fill="#268ABC" points="72.148,125.071 60.007,139.301 89.756,181.219 	"/>
	<rect x="88.287" y="180.633" fill-rule="evenodd" clip-rule="evenodd" fill="#268ABC" width="2.719" height="42.086"/>
</g>
</svg>
