<?xml version="1.0" encoding="utf-8"?>
<!-- Generator: Adobe Illustrator 15.0.0, SVG Export Plug-In . SVG Version: 6.00 Build 0)  -->
<!DOCTYPE svg PUBLIC "-//W3C//DTD SVG 1.1//EN" "http://www.w3.org/Graphics/SVG/1.1/DTD/svg11.dtd">
<svg version="1.1" id="Layer_1" xmlns="http://www.w3.org/2000/svg" xmlns:xlink="http://www.w3.org/1999/xlink" x="0px" y="0px"
	 width="31.181px" height="29.873px" viewBox="0 0 31.181 29.873" enable-background="new 0 0 31.181 29.873" xml:space="preserve">
<g>
	<path fill="#231F20" d="M15.592,2.86L15.592,2.86c-0.738,0-1.336,0.598-1.336,1.335v5.461c0,0.737,0.598,1.335,1.334,1.335l0,0
		c0.738,0,1.335-0.597,1.335-1.334V4.195C16.925,3.458,16.328,2.86,15.592,2.86z"/>
	<path fill="#231F20" d="M19.876,2.492l4.348,2.51c0.211,0.121,0.439,0.179,0.666,0.179c0.461,0,0.91-0.239,1.158-0.667
		c0.367-0.639,0.148-1.455-0.49-1.824l-4.346-2.51c-0.639-0.368-1.455-0.149-1.824,0.489C19.021,1.306,19.24,2.123,19.876,2.492z"/>
	<path fill="#231F20" d="M6.291,5.18c0.227,0,0.455-0.058,0.666-0.179l4.348-2.511c0.639-0.368,0.857-1.185,0.488-1.823
		S10.607-0.19,9.969,0.179l-4.348,2.51C4.982,3.058,4.764,3.875,5.133,4.513C5.381,4.941,5.828,5.18,6.291,5.18z"/>
	<path fill="#231F20" d="M11.686,11.14L6.957,8.41c-0.639-0.369-1.455-0.15-1.824,0.488s-0.15,1.455,0.488,1.823l4.729,2.73
		c0.211,0.121,0.441,0.18,0.666,0.18c0.463,0,0.91-0.24,1.158-0.668C12.543,12.325,12.324,11.508,11.686,11.14z"/>
	<path fill="#231F20" d="M1.336,11.09C0.598,11.09,0,11.688,0,12.425v5.021c0,0.737,0.598,1.335,1.336,1.335
		c0.736,0,1.334-0.598,1.334-1.335v-5.021C2.67,11.688,2.072,11.09,1.336,11.09z"/>
	<path fill="#231F20" d="M10.35,16.42l-4.729,2.73c-0.639,0.368-0.857,1.185-0.488,1.823c0.248,0.428,0.695,0.668,1.158,0.668
		c0.227,0,0.455-0.058,0.666-0.18l4.729-2.73c0.639-0.368,0.857-1.185,0.488-1.823S10.988,16.051,10.35,16.42z"/>
	<path fill="#231F20" d="M11.305,27.381l-4.348-2.511c-0.639-0.368-1.455-0.149-1.824,0.488c-0.369,0.639-0.15,1.455,0.488,1.824
		l4.348,2.51c0.211,0.122,0.439,0.18,0.666,0.18c0.463,0,0.91-0.24,1.158-0.668C12.162,28.566,11.943,27.75,11.305,27.381z"/>
	<path fill="#231F20" d="M15.59,18.881c-0.736,0-1.334,0.598-1.334,1.335v5.461c0,0.737,0.598,1.335,1.336,1.335
		c0.736,0,1.333-0.598,1.333-1.335v-5.462C16.925,19.478,16.328,18.881,15.59,18.881z"/>
	<path fill="#231F20" d="M24.224,24.871l-4.348,2.511c-0.639,0.368-0.857,1.185-0.488,1.823c0.246,0.429,0.695,0.668,1.156,0.668
		c0.227,0,0.457-0.058,0.666-0.18l4.35-2.51c0.637-0.369,0.855-1.186,0.488-1.824C25.679,24.721,24.863,24.502,24.224,24.871z"/>
	<path fill="#231F20" d="M24.224,21.462c0.211,0.121,0.439,0.179,0.666,0.179c0.461,0,0.91-0.239,1.156-0.667
		c0.369-0.639,0.15-1.455-0.488-1.823l-4.729-2.73c-0.637-0.368-1.453-0.149-1.822,0.488c-0.369,0.639-0.15,1.455,0.488,1.823
		L24.224,21.462z"/>
	<path fill="#231F20" d="M29.847,11.09c-0.738,0-1.336,0.598-1.336,1.335v5.021c0,0.737,0.598,1.335,1.336,1.335
		c0.736,0,1.334-0.598,1.334-1.335v-5.021C31.181,11.688,30.583,11.09,29.847,11.09z"/>
	<path fill="#231F20" d="M20.164,13.63c0.227,0,0.457-0.058,0.666-0.179l4.729-2.73c0.639-0.368,0.857-1.185,0.49-1.823
		c-0.369-0.638-1.186-0.857-1.824-0.488l-4.729,2.729c-0.639,0.369-0.857,1.186-0.488,1.824
		C19.253,13.391,19.703,13.63,20.164,13.63z"/>
</g>
</svg>
