<svg xmlns="http://www.w3.org/2000/svg" viewBox="0 0 60 60">
  <defs>
    <style>
      .cls-1, .cls-2 {
        fill: none;
      }

      .cls-2 {
        stroke: #fff;
        stroke-linecap: round;
        stroke-linejoin: round;
        stroke-width: 5px;
      }

      .cls-3, .cls-4 {
        stroke: none;
      }

      .cls-4 {
        fill: #fff;
      }
    </style>
  </defs>
  <g id="그룹_760" data-name="그룹 760" transform="translate(17117 -6363) rotate(180)">
    <g id="패스_817" data-name="패스 817" class="cls-1" transform="translate(17057 -6423)">
      <path class="cls-3" d="M30,0A30,30,0,1,1,0,30,30,30,0,0,1,30,0Z"/>
      <path class="cls-4" d="M 30 57 C 33.64630126953125 57 37.18193435668945 56.28654479980469 40.50870132446289 54.87943267822266 C 43.72347640991211 53.51969909667969 46.61127853393555 51.57249069213867 49.09188842773438 49.09188842773438 C 51.57249069213867 46.61127853393555 53.51969909667969 43.72347640991211 54.87943267822266 40.50870132446289 C 56.28654479980469 37.18193435668945 57 33.64630126953125 57 30 C 57 26.35370063781738 56.28654479980469 22.81806755065918 54.87943267822266 19.49130058288574 C 53.51969909667969 16.27652168273926 51.57249069213867 13.38872241973877 49.09188842773438 10.90811157226563 C 46.61127853393555 8.427511215209961 43.72347640991211 6.480299949645996 40.50870132446289 5.120566844940186 C 37.18193435668945 3.713455438613892 33.64630126953125 3 30 3 C 26.35370063781738 3 22.81806755065918 3.713455438613892 19.49130058288574 5.120566844940186 C 16.27652168273926 6.480299949645996 13.38872241973877 8.427511215209961 10.90811157226563 10.90811157226563 C 8.427511215209961 13.38872241973877 6.480299949645996 16.27652168273926 5.120566844940186 19.49130058288574 C 3.713455438613892 22.81806755065918 3 26.35370063781738 3 30 C 3 33.64630126953125 3.713455438613892 37.18193435668945 5.120566844940186 40.50870132446289 C 6.480299949645996 43.72347640991211 8.427511215209961 46.61127853393555 10.90811157226563 49.09188842773438 C 13.38872241973877 51.57249069213867 16.27652168273926 53.51969909667969 19.49130058288574 54.87943267822266 C 22.81806755065918 56.28654479980469 26.35370063781738 57 30 57 M 30 60 C 13.43145561218262 60 0 46.56854629516602 0 30 C 0 13.43145561218262 13.43145561218262 0 30 0 C 46.56854629516602 0 60 13.43145561218262 60 30 C 60 46.56854629516602 46.56854629516602 60 30 60 Z"/>
    </g>
    <path id="패스_806" data-name="패스 806" class="cls-2" d="M9.425,19.113,0,9.687l.086-.262L9.511,0" transform="translate(17091.807 -6383.444) rotate(180)"/>
  </g>
</svg>
