<svg xmlns="http://www.w3.org/2000/svg" width="191.257" height="285.65" viewBox="0 0 191.257 285.65">
  <g id="그룹_9257" data-name="그룹 9257" transform="translate(-1359.482 -323.5)">
    <path id="패스_1945" data-name="패스 1945" d="M84.138,66.2c.7-.19,1.563-.5,1.654-1.225a1.306,1.306,0,0,0-1.077-1.267,7.763,7.763,0,0,0-1.809-.063,5.29,5.29,0,0,1-3.963-2.2c-.866-.908-3.6-.753-4.47-2.316a6.932,6.932,0,0,1-.458-1.746A1.577,1.577,0,0,0,72.9,56.1a1.4,1.4,0,0,1-.6-.113c-.38-.253-.092-.859.3-1.112s.887-.458.957-.908c.056-.373-.225-.7-.331-1.063a1.9,1.9,0,0,1,.19-1.309c.6-1.267,1.753-2.175,2.506-3.351s.971-2.971-.155-3.8c-.605-.444-1.436-.479-2.02-.95a12.211,12.211,0,0,1-.957-1.112,9,9,0,0,0-.866-.683,5.341,5.341,0,0,1-2.027-3.977c-.021-.591-.07-1.373-.655-1.5a1.3,1.3,0,0,0-.436.014c-.986.162-1.971.317-2.957.479a1.145,1.145,0,0,1-.577-.007,1.027,1.027,0,0,1-.366-.26l-1.253-1.169a1.8,1.8,0,0,1-.472-.584,2.42,2.42,0,0,1,.063-1.281c.063-.429-.028-.971-.444-1.112s-.831.253-1.056.641-.429.852-.859.986a1.067,1.067,0,0,1-1.147-.584,5.021,5.021,0,0,1-.4-1.331c-.57-2.211-2.548-3.78-4.6-4.766l-.176-.084c-.12.12-.218.225-.3.324a3.018,3.018,0,0,1-.746.62,8.59,8.59,0,0,0-4.1,4.977,2.788,2.788,0,0,1-.88,1.38,18.037,18.037,0,0,0-2.71,3.126c-1.746,4.843-5.083,6.1-6.92,6.413a.759.759,0,0,0-.507.331.721.721,0,0,0-.1.6,5.542,5.542,0,0,1-.563,4.7.711.711,0,0,0-.359.88c1-.3,1.992-.584,2.992-.88.028.373-.373.641-.739.718a4.055,4.055,0,0,0-1.1.218c-.605.31-.725,1.112-.767,1.8a23.918,23.918,0,0,0-.049,3.689,12.31,12.31,0,0,1,.127,2.091,1.14,1.14,0,0,0,.725,1.155,11.452,11.452,0,0,1,4.259,2.548.435.435,0,0,1-.486.7L38.907,61.1a7.234,7.234,0,0,1-2.063-1.155,2.413,2.413,0,0,1-.873-2.1c.148-.915,1-1.8.415-2.64a1.524,1.524,0,0,0-1.338-.6l-4.534.246a2.344,2.344,0,0,0,.134,1.887q.676,1.837,1.352,3.668a3.247,3.247,0,0,0,.845,1.443,3.207,3.207,0,0,0,1.866.521c1.246.084,2.485.162,3.731.246a4.861,4.861,0,0,1,2.218.507,1.754,1.754,0,0,1,.887,1.654.3.3,0,0,1-.26.275,1.192,1.192,0,0,0-.922,1.232,6.893,6.893,0,0,0,.507,1.8,7.753,7.753,0,0,1-.444,4.3,8.349,8.349,0,0,1-.979,2.337,2.807,2.807,0,0,1-2.084,1.3,13.151,13.151,0,0,0,4.7,2.422c.268.077.6.211.6.493a.636.636,0,0,1-.134.338c-.577.908-1.162,1.816-1.739,2.731a5.091,5.091,0,0,0-2.914-1.126,1.715,1.715,0,0,0-1.028.2.745.745,0,0,0-.3.922c.26.479,1.169.521,1.155,1.07a1.456,1.456,0,0,0-1.225,1.155,4.259,4.259,0,0,0,.042,1.788,1.139,1.139,0,0,1,.774,1.809c.676.141,1.183-.591,1.443-1.232s.627-1.4,1.309-1.443a5.368,5.368,0,0,1,.873.141c.3.021.655-.134.669-.429a.9.9,0,0,1,.106,1.091,6.674,6.674,0,0,1,2.084.092c-.38.676-1.309.774-1.936,1.225-1.049.753-1.07,2.316-.781,3.576a12.5,12.5,0,0,0,1.14,3.112c1.88,1.133,2.844,3.633,4.963,4.2a1.372,1.372,0,0,0,1.521-.366c.493-.739-.352-1.732-.141-2.6a1.491,1.491,0,0,1,1.514-.986,4.364,4.364,0,0,1,1.837.605,1.98,1.98,0,0,0-1.577.549,1.125,1.125,0,0,0,.007,1.549,1.626,1.626,0,0,0,1.133.275,10.773,10.773,0,0,0,3.02-.507,17.759,17.759,0,0,1,2.548-.8.522.522,0,0,1,.31.056l.929.514a11.848,11.848,0,0,0,4.132,2.077c1.021-.7,1.3-.894,2.316-1.591.035-.859,1.028-1.2,1.443-1.943.232-.415.275-.943.634-1.253.324-.275.8-.282,1.162-.507.542-.338.683-1.084,1.147-1.528a2.384,2.384,0,0,1,1.359-.528,7.934,7.934,0,0,1,3.126.2,1.8,1.8,0,0,0,.859.106c.289-.063.542-.352.451-.627-.049-.162-.2-.268-.3-.415-.324-.514.2-1.126.669-1.507.859-.69,1.718-1.387,2.577-2.077.535-.436,1.359-.859,1.837-.366a6.837,6.837,0,0,1,1.07-3.872l.218.239c.148.148.422.049.535-.127a1.2,1.2,0,0,0,.12-.612,5.711,5.711,0,0,1,.746-2.64,5.893,5.893,0,0,0,.986-2.013,8.436,8.436,0,0,0-.12-1.626,3.525,3.525,0,0,1,.824-2.45,6.127,6.127,0,0,0,.852-1.021,3.222,3.222,0,0,0,.26-1.485c.021-1.063-.084-2.344-1.028-2.83-.394-.2-.936-.275-1.091-.69C82.835,66.787,83.56,66.351,84.138,66.2Zm-27.322,1.8c-.38.3-.831.5-1.2.81a13.608,13.608,0,0,0-1.471,1.964A1.808,1.808,0,0,1,52,71.49a3.575,3.575,0,0,1-.563-.472,2.893,2.893,0,0,0-2.879-.521,7.319,7.319,0,0,1-1.387.556c-1.119.169-.81-.943-1.492-1.844-.331-.436-1.887-.767-2.218-1.2-.549-.725-1.859-2.6-.8-3.358.331-.232,1.1-.042,1.528-.359a2.294,2.294,0,0,0,.648-.88,6.886,6.886,0,0,1,1.485-2.471,3.187,3.187,0,0,1,1.654-.732c.507-.063,1.387.282,1.788-.127a1.2,1.2,0,0,0,.246-.619,2.952,2.952,0,0,1,1.521-1.915c.3.415.612.824.915,1.239.408-.317.817-.634,1.232-.95a.656.656,0,0,1,.563-.2.625.625,0,0,1,.31.345,4.919,4.919,0,0,1,.739,2.4c-.028.852-.451,1.64-.549,2.478s.359,1.887,1.211,1.908c.605.014,1.331-.465,1.732-.021a.928.928,0,0,1,.19.443A2.966,2.966,0,0,1,56.816,68.005Z" transform="translate(1350.659 315.615)" fill="#fff" stroke="#999" stroke-linecap="round" stroke-linejoin="round" stroke-miterlimit="10" stroke-width="1"/>
    <g id="그룹_5908" data-name="그룹 5908" transform="translate(1373.982 366.749)">
      <path id="패스_1947" data-name="패스 1947" d="M27.809,70.56a2.609,2.609,0,0,1,.028,1.366,1.186,1.186,0,0,1-1.352.824c-.479-.155-.929-.711-1.359-.451-.12.07-.2.2-.31.289-.317.253-.781.106-1.162-.049-.774-.317-1.542-.641-2.316-.957a.672.672,0,0,1-.352-.246c-.2-.366.317-.683.7-.859a2.076,2.076,0,0,0,1.133-1.169,1.377,1.377,0,0,0-.415-1.514,3.374,3.374,0,0,0-1.147-.4,1.138,1.138,0,0,1-.88-.76,1.725,1.725,0,0,1,.218-.9,3.068,3.068,0,0,0,0-2.2.968.968,0,0,1-.106-.458c.035-.275.324-.436.542-.612.4-.331.627-.866,1.091-1.112a1.7,1.7,0,0,1,1.661.211c.493.31.9.753,1.4,1.056a13.749,13.749,0,0,1,1.485.817c.359.289.19.669-.042,1.063a2.843,2.843,0,0,0-.289,1.042,10.921,10.921,0,0,0,1.2,4.365Z" transform="translate(-20.364 -61.214)" fill="#fff" stroke="#999" stroke-linecap="round" stroke-linejoin="round" stroke-miterlimit="10" stroke-width="1"/>
      <path id="패스_1948" data-name="패스 1948" d="M39.821,88.016c.056.007-.063-.014,0,0-1.661-.035-2.76-1.077-3.851-2.33a1.836,1.836,0,0,1-.317-.458,1.313,1.313,0,0,1,.3-1.3,13.056,13.056,0,0,1,1.028-.943.758.758,0,0,0,.3-.634c-.063-.345-.507-.458-.852-.422a1.885,1.885,0,0,1-1.028-.007c-.563-.282-.429-1.1-.394-1.725.063-1.063-2.267-3.97-1.415-3.33h0c.507.415,1.232.169,1.887.211,1.246.084,2.485.162,3.731.246a4.861,4.861,0,0,1,2.218.507,1.754,1.754,0,0,1,.887,1.654.3.3,0,0,1-.26.275A1.192,1.192,0,0,0,41.131,81a6.893,6.893,0,0,0,.507,1.8,11.247,11.247,0,0,1-.444,5.209c-.246.81-.57-.084-1.387,0" transform="translate(-24.224 -65.822)" fill="#fff" stroke="#999" stroke-linecap="round" stroke-linejoin="round" stroke-miterlimit="10" stroke-width="1"/>
      <path id="패스_1949" data-name="패스 1949" d="M27.537,84.5a.742.742,0,0,1-.134.451c-.239.225-.662-.084-.957.07s-.211.6-.077.9c.19.436.486.95.964.943.352-.007.62-.3.9-.514a2.686,2.686,0,0,1,1.612-.444,2.505,2.505,0,0,0,.859-.049.611.611,0,0,0,.458-.648c-.07-.352-.5-.465-.845-.542C29.4,84.446,27.762,82.658,27.537,84.5Z" transform="translate(-22.105 -67.863)" fill="#fff" stroke="#999" stroke-linecap="round" stroke-linejoin="round" stroke-miterlimit="10" stroke-width="1"/>
    </g>
    <path id="패스_1950" data-name="패스 1950" d="M92.422,71.6a4.691,4.691,0,0,0,.986-2.013,8.436,8.436,0,0,0-.12-1.626,3.525,3.525,0,0,1,.824-2.45,6.128,6.128,0,0,0,.852-1.021A3.222,3.222,0,0,0,95.224,63c.021-1.063-.084-2.344-1.028-2.83-.394-.2-.936-.275-1.091-.69-.211-.563.514-1,1.091-1.155.7-.19,1.563-.5,1.654-1.225a1.306,1.306,0,0,0-1.077-1.267,7.751,7.751,0,0,0-1.809-.056A5.29,5.29,0,0,1,89,53.584h0c-.866-.908-3.6-.753-4.47-2.316a6.933,6.933,0,0,1-.458-1.746,1.577,1.577,0,0,0-1.119-1.288,1.4,1.4,0,0,1-.6-.113c-.38-.253-.092-.859.3-1.112s.887-.458.957-.908c.056-.373-.225-.7-.331-1.063a1.9,1.9,0,0,1,.19-1.309c.6-1.267,1.753-2.175,2.506-3.351s.971-2.971-.155-3.8c-.605-.444-1.436-.479-2.02-.95a12.213,12.213,0,0,1-.957-1.112,9,9,0,0,0-.866-.683,5.341,5.341,0,0,1-2.027-3.977c-.021-.591-.07-1.373-.655-1.5a1.3,1.3,0,0,0-.436.014c-.986.162-1.971.317-2.957.479a1.145,1.145,0,0,1-.577-.007,1.027,1.027,0,0,1-.366-.26L73.7,27.41a1.8,1.8,0,0,1-.472-.584,2.42,2.42,0,0,1,.063-1.281c.07-.429-.028-.971-.444-1.112s-.831.253-1.056.641-.429.852-.859.986a1.067,1.067,0,0,1-1.147-.584,5.021,5.021,0,0,1-.4-1.331c-.57-2.211-2.6-3.893-4.667-4.886h0a4.655,4.655,0,0,1,2.358-1.267,3.008,3.008,0,0,0,.852-.225,3.888,3.888,0,0,1,1.922-.486l3.816.056a3.209,3.209,0,0,0,1.485-.324,3.144,3.144,0,0,1,3.738.338,3.04,3.04,0,0,0,1.169.7,2.448,2.448,0,0,0,2.83-.451,2.72,2.72,0,0,1,1.844-.612c3.8.2,6.111.035,6.864-.486l.422-.169a.578.578,0,0,1,.7.225c.148.232.331.507.507.753a1.59,1.59,0,0,0,2.013.5,4.583,4.583,0,0,1,4.337-.162,2.273,2.273,0,0,0,1.26.289c1.8-.077,6.322-.634,9.356-4.1.2-.176,5.048-4.308,3.921-9.729a2.357,2.357,0,0,1,.535-2.013A7.384,7.384,0,0,1,117.265.49h0c1.2,2.239,2.02,4,3.224,6.237a10.309,10.309,0,0,1,1.492,4.041,5.5,5.5,0,0,0,.162,1.408c.3.859,1.218,1.408,1.429,2.288a19.921,19.921,0,0,0,2.478,5.73,12.493,12.493,0,0,1,1.1,1.964c.408,1.049.436,2.2.767,3.274a12.057,12.057,0,0,0,2.02,3.492c1.084,1.471,2.584,2.64,3.245,4.344a12.9,12.9,0,0,0,.486,1.218,7.8,7.8,0,0,0,1.14,1.542q2.027,2.313,4.055,4.618a6.84,6.84,0,0,1,2.091,3.8c.021.289.289.7.458.465a8.952,8.952,0,0,0,2.837,2.978,4.949,4.949,0,0,1,2.337,3.245,8.672,8.672,0,0,0,.077,1.211c.225,1.007,1.239,1.605,1.8,2.471.8,1.239.591,2.893,1.274,4.2.535,1.014,1.549,1.711,2.07,2.731a18.9,18.9,0,0,0,.831,1.978c.472.725,1.288,1.147,1.859,1.788a15.915,15.915,0,0,1,1.485,2.619c1.056,1.767,3.027,3.006,3.534,5a1.73,1.73,0,0,1,.028.908,7.088,7.088,0,0,1-.331.7c-.317.746.268,1.422.106,2.049-.155.605-.422.387-1.028.528a5.21,5.21,0,0,0-3.217,2.436c-.605.957-1.14,2.084-2.189,2.513-1.767.725-3.59-.979-5.5-1.07-1.338-.063-2.64.683-3.963.465-.577-.092-1.105-.366-1.675-.472a1.536,1.536,0,0,0-1.577.472c-.155.225-.2.507-.338.739a1.978,1.978,0,0,1-2.471.465,11.5,11.5,0,0,0-2.513-1.1.9.9,0,0,0-.634.084c-.577.366-.1,1.253.408,1.711a4.6,4.6,0,0,1-3.611-.591,15.971,15.971,0,0,0-3.365-1.675,26.9,26.9,0,0,0-2.922-.345c-3.288-.465-6.04-2.957-9.342-3.316-.387-.042-.859-.106-1-.472-.275-.683.936-1.035,1.14-1.739a11.878,11.878,0,0,0-11.376.458,3.662,3.662,0,0,0-1.894-2.168,2.443,2.443,0,0,0-2.731.486,1.865,1.865,0,0,0,.141,2.633c-.922.3-1.844.6-2.767.894-1.528.493-2.626.6-3.893-.387,0,0-1.57-1.155-1.38-2.492A9.662,9.662,0,0,1,92.422,71.6Z" transform="translate(1340.488 323.51)" fill="#fff" stroke="#999" stroke-linecap="round" stroke-linejoin="round" stroke-miterlimit="10" stroke-width="1"/>
    <path id="패스_1951" data-name="패스 1951" d="M75.8,121.464a6.094,6.094,0,0,0,2.358,5.125,6.292,6.292,0,0,1,1.366,1.14,1.275,1.275,0,0,1,.014,1.633,2,2,0,0,1-.725.359,8.039,8.039,0,0,0-4.773,4.717,1.467,1.467,0,0,0-.12.788,1.579,1.579,0,0,0,.394.669,13.051,13.051,0,0,1,3.013,4.611c.324,1.14.31,2.429,1.014,3.379a2.469,2.469,0,0,0,2.119,1.007c.817-.063,2.056-.148,2.309-.922h0c.507-.366.993.641.993,1.267s-.225,1.323.127,1.837c.408.6,1.359.591,1.781,1.176.556.767-.19,1.76-.753,2.52a7.6,7.6,0,0,0-1.415,5.568c1.387,1.035,3.928.239,4.688,1.8a3.882,3.882,0,0,1-.113,2.422,4.883,4.883,0,0,0,1.844,5.111,7.383,7.383,0,0,0,2.57.824c1.1.211,2.2.415,3.3.627a11.043,11.043,0,0,0,2.957.289,5.812,5.812,0,0,0,5.04-6.533c-.162-.922-.317-2.246.6-2.436.028.6.88.845,1.387.535a2.708,2.708,0,0,0,.95-1.471c.338-.95.415-2.4-.577-2.57a2.23,2.23,0,0,0-1.281.394c-1.3.612-2.781.535-3.189-.838-.915-.331-1.83-.669-2.738-1a.654.654,0,0,1-.289-.162c-.232-.253.007-.648.211-.936.957-1.387.718-3.231.788-4.921.077-1.95.627-3.886.451-5.836s-1.38-4.027-3.316-4.294a6.671,6.671,0,0,1,4.689-2.056,4.181,4.181,0,0,0,1.422-.134,1,1,0,0,0,.683-1.112,1.443,1.443,0,0,0-.725-.7c-.894-.514-1.8-1.021-2.689-1.535.838-.373,1.683-.753,2.52-1.126a3.557,3.557,0,0,1,1.331-.4c1.338-.056,2.584,1.309,3.837.845.549-1.338-1.021-2.837-.542-4.2.38-1.07,1.746-1.352,2.886-1.352s2.436.056,3.2-.781c.415-.451.634-1.14,1.2-1.366a1.938,1.938,0,0,1,1.042-.014,5.211,5.211,0,0,1,2.084.662,1.77,1.77,0,0,1,.824,1.887c1.528-.239,3.048-.486,4.576-.725.472-.577-.69-1.2-.781-1.943a1.354,1.354,0,0,1,.2-.76,21.6,21.6,0,0,1,6.188-7.687,5.158,5.158,0,0,1,3.921-1.415l1.105.253A15.969,15.969,0,0,0,130.4,112a26.893,26.893,0,0,0-2.921-.345c-3.288-.465-6.04-2.957-9.342-3.316-.387-.042-.859-.106-1-.472-.275-.683.936-1.035,1.14-1.739a11.878,11.878,0,0,0-11.376.458A3.662,3.662,0,0,0,105,104.42a2.443,2.443,0,0,0-2.731.486,1.859,1.859,0,0,0,.141,2.633c-.922.3-1.844.6-2.767.894-1.528.493-2.626.6-3.893-.387,0,0-1.57-1.155-1.38-2.492-.113.176-.387.275-.535.127l-.218-.239a6.728,6.728,0,0,0-1.07,3.872c-.486-.493-1.3-.063-1.837.366-.859.69-1.718,1.387-2.577,2.077-.472.38-.993,1-.669,1.507a2.125,2.125,0,0,1,.3.415c.092.275-.169.563-.451.627a1.812,1.812,0,0,1-.859-.106,7.934,7.934,0,0,0-3.126-.2,2.384,2.384,0,0,0-1.359.528c-.465.443-.605,1.183-1.147,1.528-.359.225-.838.232-1.162.507-.359.31-.408.838-.634,1.253-.408.746-1.408,1.084-1.443,1.943-1.021.7-1.3.894-2.316,1.591Z" transform="translate(1337.77 292.808)" fill="#fff" stroke="#999" stroke-linecap="round" stroke-linejoin="round" stroke-miterlimit="10" stroke-width="1"/>
    <path id="패스_1952" data-name="패스 1952" d="M84.93,198.157c-1.471,2.577-6.019,2.267-7.019,5.055a4.928,4.928,0,0,1-.387,1.049c-.3.472-.866.7-1.246,1.112a3.773,3.773,0,0,0-.746,1.612c-.394,1.394-.781,2.788-1.176,4.189a8.688,8.688,0,0,1-.641,1.767,6.546,6.546,0,0,0-.528,1.007A2.966,2.966,0,0,0,73.054,215a6.455,6.455,0,0,0,1.619,4.139c.753.838,1.809,1.711,1.605,2.816a4.325,4.325,0,0,1-.641,1.288c-.444.8-.612,1.711-1.007,2.527a2.415,2.415,0,0,1-2.056,1.549,4.728,4.728,0,0,1-1.8-.732,4.523,4.523,0,0,0-5.033.866,3.386,3.386,0,0,1-1.267,1.042,2.826,2.826,0,0,1-1.753-.3,9.638,9.638,0,0,0-7.272.26A6.9,6.9,0,0,1,53,229.35c-2,.106-3.393-2.147-3.372-4.146a13.636,13.636,0,0,0,.021-2.006,1.919,1.919,0,0,0-1.07-1.584,1.069,1.069,0,0,0-1.457.866c.007.246.127.472.141.718.07,1-1.478,1.309-2.274.7s-1.155-1.626-1.851-2.351a4.829,4.829,0,0,0-2.394-1.232c-1.563-.366-3.618-.007-4.09,1.528a7.512,7.512,0,0,0-.162,1.492,5.048,5.048,0,0,1-3.33,3.949,9,9,0,0,1-5.35.084,2.54,2.54,0,0,1-1-.429,2.612,2.612,0,0,1-.6-.831q-1.3-2.386-2.591-4.766a9.039,9.039,0,0,1,1.985-2.992,4.805,4.805,0,0,1,4.456-.986,1.474,1.474,0,0,1,2.57-1.2,1.115,1.115,0,0,0,.1-1.725,2.195,2.195,0,0,0-1.894-.415c-.662.113-1.288.38-1.957.479a8.079,8.079,0,0,1-4.273-.957,1.008,1.008,0,0,1-.514-.359c-.239-.4.148-.88.507-1.176,1.436-1.169,3.062-2.1,4.4-3.379a6.348,6.348,0,0,0,2.246-4.872,8.683,8.683,0,0,1,5.4,1.436,2.183,2.183,0,0,0-.591-3.6,6.307,6.307,0,0,1-1.105-.345c-.338-.19-.577-.655-.345-.971a.928.928,0,0,1,.69-.289,17.971,17.971,0,0,0,2.682-.3,2.848,2.848,0,0,0,2.042-1.605,23.218,23.218,0,0,1-7.279.521,1.589,1.589,0,0,1-1.654-1.126l-.929-1.922a.861.861,0,0,1-.12-.486c.049-.253.317-.387.549-.479A9.526,9.526,0,0,1,34.743,194l2.006-.69a2.851,2.851,0,0,0,.3-.852c.521-1.373,2.872-.746,3.787-1.894.549-.69.331-1.7.591-2.548.472-1.507,2.267-2.07,3.809-2.408,1.563-.345,3.337-.655,4.66.246.88.6,1.408,1.64,2.344,2.147,1.331.718,2.957.134,4.372-.408a8.548,8.548,0,0,1,3.71-.774,3.28,3.28,0,0,1,2.936,2.084c.246.824.127,1.9.866,2.344s1.675-.148,2.492.07c1.352.366,1.64,2.675,3.041,2.668A1.526,1.526,0,0,0,71,192.63a4.453,4.453,0,0,0-.317-2.02c.289-.507,1.084-.183,1.485.246s.936.979,1.464.725c.627-.3.394-1.528.648-2.175h0c-1.64-1.014-1.535-3.259-1.14-5.146h0a4.925,4.925,0,0,0,1.922,5.111,7.384,7.384,0,0,0,2.57.824c1.1.211,2.2.415,3.3.627a11.045,11.045,0,0,0,2.957.289l.817-.084h0A7.735,7.735,0,0,1,85.6,195.4Z" transform="translate(1352.654 269.111)" fill="#fff" stroke="#999" stroke-linecap="round" stroke-linejoin="round" stroke-miterlimit="10" stroke-width="1"/>
    <path id="패스_1953" data-name="패스 1953" d="M105.643,200.07,105,202.837c-1.471,2.577-6.019,2.267-7.019,5.055a4.927,4.927,0,0,1-.387,1.049c-.3.472-.866.7-1.246,1.112a3.773,3.773,0,0,0-.746,1.612c-.394,1.394-.781,2.788-1.176,4.189a8.688,8.688,0,0,1-.641,1.767,6.545,6.545,0,0,0-.528,1.007,2.966,2.966,0,0,0-.134,1.056,6.455,6.455,0,0,0,1.619,4.139c.753.838,1.809,1.711,1.605,2.816a4.326,4.326,0,0,1-.641,1.288c-.444.8-.612,1.711-1.007,2.527A2.415,2.415,0,0,1,92.641,232l-.331,1.077c.676,1.225.993,3.055,1.767,4.224.289.436,1.281,1.985,1.6,2.394,1.683,2.161,1.422,4.583,3.33,6.111,2.077,1.661,1.718,3.738,1.028,5.569a13.219,13.219,0,0,1,3.013.788,2.449,2.449,0,0,0,2.788-.8c.275-.507.359-1.253.922-1.366a4.623,4.623,0,0,0,3.224.422.862.862,0,0,0,.429-.2c.3-.289.12-.817-.183-1.1a7.467,7.467,0,0,1-.964-.788c1.035-.535,2.063-1.07,3.1-1.605-.366,1.5-.725,3.006-1.091,4.505a1.289,1.289,0,0,0-.014.845,1.354,1.354,0,0,0,.387.436c.627.528,1.26,1.049,1.887,1.577,1.26,1.049,2.774,2.168,4.386,1.83a2.178,2.178,0,0,1,3.773-1.739c.211.232.436.535.739.493.549-.077.352-.922.542-1.443a1.04,1.04,0,0,1,1.464-.415,1.886,1.886,0,0,1,.81,1.464,2.61,2.61,0,0,0-1.316.169.881.881,0,0,0-.451,1.119,1.114,1.114,0,0,0,.577.429,3.589,3.589,0,0,0,4.006-1.485,6.577,6.577,0,0,0,.9-4.414c.62.436,1.542-.077,1.8-.788a3.745,3.745,0,0,0-.141-2.232l-.465-1.711c1.563-.436,3.618-.7,4.47.683a1.72,1.72,0,0,0,.38.535c.359.26.866.042,1.253-.176.943-2-1.774-4.245-1.084-6.343.711,1.387,1.619,2.921,3.154,3.21a8.662,8.662,0,0,1,1.281.2.922.922,0,0,1,.683.971,3.688,3.688,0,0,1,3.6.936l2.1-.5a6.776,6.776,0,0,0-2-2.6c1.063-.077,2.126-.148,3.189-.225a2.016,2.016,0,0,0,1.042-.268c.8-.57.373-1.844.669-2.781.669-2.147,4.583-1.7,5.181-3.865a1.4,1.4,0,0,1,.225-.591,1.1,1.1,0,0,1,.655-.253c2.809-.486,4.766-2.971,6.441-5.28l1.2-.8c-.127-.289-.12-.627-.218-.929-.549-1.711-3.435-1.112-4.513-2.548-.577-.767-.549-2.035-1.422-2.436a2.437,2.437,0,0,0-1.084-.12,7.146,7.146,0,0,1-2.865-.584c-.549-.239-1.119-.62-1.218-1.211s.662-1.211,1.1-.81l1.14-1.119a9.964,9.964,0,0,1-1.436-1.239c-1.422-1.133-3.527-.852-5.2-.12s-3.182,1.851-4.956,2.281a12.282,12.282,0,0,1-6.04-.472c-1.309-.352-2.774-.908-3.231-2.182l-.415.113a8.151,8.151,0,0,1-3.323.275l-1.133-.634c-1.169.514-2.408-.408-3.548-.986-2.056-1.049-4.47-1.028-6.772-.979a5.43,5.43,0,0,0-.788-5.822,8.663,8.663,0,0,0-2.872-1.978,24.337,24.337,0,0,0-4.836-1.7,5.491,5.491,0,0,1-2.112-.774c-1.218-.929-1.352-2.682-1.218-4.189" transform="translate(1332.321 264.431)" fill="#fff" stroke="#999" stroke-linecap="round" stroke-linejoin="round" stroke-miterlimit="10" stroke-width="1"/>
    <path id="패스_1954" data-name="패스 1954" d="M187.647,233.03c-.127-.289.1-.627,0-.929-.549-1.711-3.6-1.112-4.681-2.548-.577-.767-.549-2.035-1.422-2.436a2.438,2.438,0,0,0-1.084-.12,7.145,7.145,0,0,1-2.865-.584,1.838,1.838,0,0,1-1.218-1.211c-.1-.591.662-1.211,1.1-.81l1.14-1.119h.113c.605-.366-.2-1.422.232-1.985.268-.352.817-.253,1.253-.324,1.091-.176,1.542-1.45,1.971-2.471s1.507-2.548,2.457-1.992c4.872-.035,4.59,2.2,5.329,2.7.957.648,1.225-.268,2.351-.514a9.285,9.285,0,0,1,6.287.894l-2.1,1.028a13.672,13.672,0,0,1,.556,7.927c-.127.542-.542,1.211-1.049,1.007-.1-.929-.19-1.859-.289-2.788l-1.225.19a3.347,3.347,0,0,1,.472,1.64,1.15,1.15,0,0,1-1.07,1.126,12.015,12.015,0,0,0,.338,4.576,3.611,3.611,0,0,1,.338,1.366c-.084,1.331-1.809,1.767-3.14,1.837-.07-1.126-.225-2.408-1.155-3.048-.8-.535-2.246-.514-2.64-1.408-.127-.289.1-.627,0-.929Z" transform="translate(1307.438 259.602)" fill="#fff" stroke="#999" stroke-linecap="round" stroke-linejoin="round" stroke-miterlimit="10" stroke-width="1"/>
    <path id="패스_1955" data-name="패스 1955" d="M184.518,238.71c.1.3-.127.634,0,.929v-.929c.1.3-.127.634,0,.929.387.894,1.837.873,2.64,1.429.929.641,1.084,1.922,1.155,3.048L187.13,245c-1.183.472-1.091,2.126-1.366,3.365a8.454,8.454,0,0,1-1.661,3.076,6.865,6.865,0,0,1-.8.95,5.337,5.337,0,0,1-3.358,1.14,15.759,15.759,0,0,0,.718,2.534,3.737,3.737,0,0,1-3.119-.88,1.52,1.52,0,0,0,1.07,1.929c-1.225.612-3.119-.957-3.893.176-.3.451-.366,1.26-.908,1.225a2.416,2.416,0,0,1,.07-2.682,2.914,2.914,0,0,0-2.746.718,1.305,1.305,0,0,0-1.415-.95,3.918,3.918,0,0,0-1.711.7h-.268a6.776,6.776,0,0,0-2-2.6c1.063-.077,2.126-.148,3.189-.225a2.016,2.016,0,0,0,1.042-.268c.8-.57.373-1.844.669-2.781.669-2.147,4.583-1.7,5.181-3.865a1.4,1.4,0,0,1,.225-.591,1.1,1.1,0,0,1,.655-.253c2.809-.486,4.766-2.971,6.441-5.28l1.2-.8c-.127-.289-.12-.627-.218-.929h.38Z" transform="translate(1310.582 252.992)" fill="#fff" stroke="#999" stroke-linecap="round" stroke-linejoin="round" stroke-miterlimit="10" stroke-width="1"/>
    <path id="패스_1956" data-name="패스 1956" d="M147.461,215.3c-.6-1.661,1.028-3.33,2.372-4.477a10.849,10.849,0,0,1,3.414-2.232,3.637,3.637,0,0,0,1.408-.62c.648-.605.556-1.661.979-2.436.5-.922,1.668-1.38,2.013-2.372s-.3-2.02-.57-3.034c-.436-1.647-.084-3.83-1.563-4.674a3.8,3.8,0,0,0-3.027.141c-1.746.591-3.5,1.19-5.245,1.781a.953.953,0,0,0-.465.26c-.493.591.676,1.619.134,2.175a22.187,22.187,0,0,0-4.2,1.7c-.387.2-.831.549-.718.971.084.324.444.472.753.577.943.317,1.894.634,2.837.957a.871.871,0,0,1-.317,1.126,7.655,7.655,0,0,1-1.162.556,3.3,3.3,0,0,0-1.57,2.865,9.794,9.794,0,0,0,.676,3.337,6.807,6.807,0,0,0-2.189-.338l1.711,3.442,1.133.634a9.294,9.294,0,0,0,3.6-.345h0" transform="translate(1317.902 265.876)" fill="#fff" stroke="#999" stroke-linecap="round" stroke-linejoin="round" stroke-miterlimit="10" stroke-width="1"/>
    <path id="패스_1957" data-name="패스 1957" d="M132.561,189.675l-1.711-3.442a6.619,6.619,0,0,1,2.189.338,9.629,9.629,0,0,1-.676-3.337,3.334,3.334,0,0,1,1.57-2.865,8.389,8.389,0,0,0,1.162-.556.877.877,0,0,0,.317-1.126c-.943-.317-1.894-.634-2.837-.957-.317-.106-.669-.26-.753-.577-.113-.422.331-.767.718-.971a23.156,23.156,0,0,1,4.2-1.7c.542-.556-.634-1.577-.134-2.175a.953.953,0,0,1,.465-.26c1.746-.591,3.5-1.19,5.245-1.781a3.74,3.74,0,0,1,3.027-.141c1.478.845,1.126,3.027,1.563,4.674.268,1.014.908,2.042.57,3.034s-1.514,1.45-2.013,2.372c-.422.781-.331,1.83-.979,2.436a3.636,3.636,0,0,1-1.408.62,10.849,10.849,0,0,0-3.414,2.232c-1.345,1.147-2.971,2.816-2.372,4.477l-.092.021c.486,1.232,1.922,1.774,3.2,2.119a12.282,12.282,0,0,0,6.04.472c1.767-.429,3.288-1.549,4.956-2.281s3.766-1.021,5.2.12a10.358,10.358,0,0,0,1.436,1.239c.605-.366-.2-1.422.232-1.985.268-.352.817-.253,1.253-.324,1.091-.176,1.542-1.45,1.971-2.471s1.507-2.548,2.457-1.992c4.872-.035,4.59,2.2,5.329,2.7.957.648,1.225-.268,2.351-.514a9.285,9.285,0,0,1,6.287.894l2.429-14.467a4.465,4.465,0,0,1,.627-1.908c.275-.387.669-.676.943-1.063.732-1.014.514-2.408.26-3.633-.817-.225-1.6.458-2.07,1.162s-.894,1.528-1.683,1.844a3.249,3.249,0,0,1-1.38.141c-1.288-.056-2.964-.486-3.027-1.781-.063-1.338,1.8-2.161,1.774-3.506a3.025,3.025,0,0,0-.648-1.485,12.166,12.166,0,0,1-.556-11.848,19.806,19.806,0,0,0,1.345-2.675c.732-2.175.042-4.534-.521-6.758s-.964-4.731.239-6.688a15.034,15.034,0,0,0,.915-1.408,4.665,4.665,0,0,0,.3-2.408c-.253-2.682-1.45-5.16-2.386-7.68s-1.619-5.308-.831-7.885a2.575,2.575,0,0,0,.183-1.746,3.029,3.029,0,0,0-.648-.788,3.7,3.7,0,0,1-.81-3.562l-.394-.725c-.155.605-.422.387-1.028.528a5.21,5.21,0,0,0-3.217,2.436c-.605.957-1.14,2.084-2.189,2.513-1.767.725-3.59-.979-5.5-1.07-1.338-.063-2.64.683-3.963.465-.577-.092-1.105-.366-1.675-.472a1.536,1.536,0,0,0-1.577.472c-.155.225-.2.507-.338.739a1.978,1.978,0,0,1-2.471.465,11.5,11.5,0,0,0-2.513-1.1.9.9,0,0,0-.634.084c-.577.366-.1,1.253.408,1.711a4.6,4.6,0,0,1-3.611-.591h0l-1.105-.253a5.158,5.158,0,0,0-3.921,1.415,21.681,21.681,0,0,0-6.188,7.687,1.479,1.479,0,0,0-.2.76c.092.739,1.253,1.359.781,1.943-1.528.239-3.048.486-4.576.725a1.775,1.775,0,0,0-.824-1.887A5.211,5.211,0,0,0,125.55,125a2.008,2.008,0,0,0-1.042.014c-.57.225-.788.915-1.2,1.366-.767.838-2.07.781-3.2.781s-2.506.282-2.886,1.352c-.479,1.366,1.084,2.865.542,4.2-1.253.458-2.5-.9-3.837-.845a3.777,3.777,0,0,0-1.331.4c-.838.373-1.683.753-2.52,1.126.894.514,1.8,1.021,2.689,1.535a1.365,1.365,0,0,1,.725.7.993.993,0,0,1-.683,1.112,4.164,4.164,0,0,1-1.422.134,6.642,6.642,0,0,0-4.689,2.056c1.936.268,3.14,2.351,3.316,4.294s-.373,3.879-.451,5.836c-.07,1.683.176,3.534-.788,4.921-.2.289-.444.676-.211.936a.731.731,0,0,0,.289.162c.915.331,1.83.669,2.739,1,.408,1.373,1.894,1.45,3.189.838a2.23,2.23,0,0,1,1.281-.394c.993.169.915,1.619.577,2.57a2.621,2.621,0,0,1-.95,1.471c-.514.31-1.359.063-1.387-.535-.915.183-.76,1.514-.6,2.436.542,3.048-1.373,6.2-4.456,6.448a7.735,7.735,0,0,1,.894,4.372c-.134,1.507,0,3.259,1.211,4.168a5.652,5.652,0,0,0,2.112.774,23.624,23.624,0,0,1,4.836,1.7,8.664,8.664,0,0,1,2.872,1.978,5.43,5.43,0,0,1,.788,5.822c2.3-.049,4.717-.07,6.772.979,1.133.577,2.379,1.492,3.548.986h.289Z" transform="translate(1328.064 291.362)" fill="#fff" stroke="#999" stroke-linecap="round" stroke-linejoin="round" stroke-miterlimit="10" stroke-width="1"/>
    <path id="패스_1958" data-name="패스 1958" d="M42.013,261.183a2.444,2.444,0,0,0,1.1.7.863.863,0,0,0,1.042-.556c.021-.106.014-.218.028-.324.077-.725.936-1.119,1.668-1.07s1.408.387,2.126.493a3.349,3.349,0,0,0,3.633-4.428c-.824-.711-2.239-.26-3.055-.972-.5-.436-.6-1.176-.929-1.753a2.509,2.509,0,0,0-2.753-1.162,6.423,6.423,0,0,0-1.809,1.028,2.939,2.939,0,0,1-1.943.641c-1.823-.246-.479-2.387-2.626-1.2-.943.521-2.738,1.711-3.055,2.816-.535,1.873,1.2,2.422,2.527,2.922A12.165,12.165,0,0,1,42.013,261.183Z" transform="translate(1349.186 249.049)" fill="#fff" stroke="#999" stroke-linecap="round" stroke-linejoin="round" stroke-miterlimit="10" stroke-width="1"/>
    <g id="그룹_5909" data-name="그룹 5909" transform="translate(1360 489.282)">
      <path id="패스_1959" data-name="패스 1959" d="M8.244,304.5a8.193,8.193,0,0,0-2.548.458,2.879,2.879,0,0,0-1.76,1.788,1.3,1.3,0,0,1-.211.563c-.218.253-.605.225-.943.239a2.567,2.567,0,0,0-2.126,3.365c.662.021,1.316.042,1.978.056a1.532,1.532,0,0,1-.148,1.464,5.111,5.111,0,0,0,3.337.063,14.854,14.854,0,0,0,3.083-1.408,3.439,3.439,0,0,0,1.155-.866c.253-.338,1.225.239,1.436-.127a6.872,6.872,0,0,1,1.2-1.443c.5-.521.331-2.372.2-3.09-.141-.781-.887-1.281-1.563-1.7-.732-.443-1.457-.887-2.189-1.331-.007.282-.007.556-.014.838Z" transform="translate(-0.502 -255.185)" fill="#fff" stroke="#999" stroke-linecap="round" stroke-linejoin="round" stroke-miterlimit="10" stroke-width="1"/>
      <path id="패스_1960" data-name="패스 1960" d="M75.713,267.9c-.88-.091-1.183,1.147-1.837,1.739a2.054,2.054,0,0,1-2.26.162,6.108,6.108,0,0,1-1.788-1.591c-.943-1.1-1.95-2.365-1.851-3.809.049-.753.753-1.605,1.429-1.274.19.88.387,1.76.577,2.64a30.941,30.941,0,0,0,5.308-3.379l.26-.605c.69-1.823,1.049-3.907-1.028-5.569-1.908-1.528-1.647-3.949-3.33-6.111-.317-.408-1.316-1.957-1.6-2.394-.774-1.169-1.091-2.992-1.767-4.224l.331-1.077-1.528-.732a4.523,4.523,0,0,0-5.033.866,3.386,3.386,0,0,1-1.267,1.042,2.826,2.826,0,0,1-1.753-.3,9.638,9.638,0,0,0-7.272.26,6.9,6.9,0,0,1-2.457.894c-2,.106-3.393-2.147-3.372-4.146a13.635,13.635,0,0,0,.021-2.006,1.919,1.919,0,0,0-1.07-1.584,1.069,1.069,0,0,0-1.457.866c.007.246.127.472.141.718.07,1-1.478,1.309-2.274.7s-1.155-1.626-1.851-2.351a4.829,4.829,0,0,0-2.394-1.232c-1.563-.366-3.618-.007-4.09,1.528a7.511,7.511,0,0,0-.162,1.492,5.048,5.048,0,0,1-3.33,3.949,9,9,0,0,1-5.35.084,2.54,2.54,0,0,1-1-.429,2.612,2.612,0,0,1-.6-.831q-1.3-2.387-2.591-4.766l-.866.732a4.884,4.884,0,0,0-.866,1.809,1.66,1.66,0,0,0,.711,1.753c.31.169.683.2.971.394s.415.7.113.866c-.345.2-.683-.246-.957-.535a1.553,1.553,0,0,0-1.894-.218,11.672,11.672,0,0,1-.465,2.746,12.461,12.461,0,0,1-.838,1.816,2.417,2.417,0,0,1-.493.718,2.522,2.522,0,0,1-2.182.246l.429.19a3.983,3.983,0,0,1,.07,2.168,5.339,5.339,0,0,0,2.8.5c-.563.387-.4,1.267-.077,1.873a6.221,6.221,0,0,0,3.055,2.767,3.283,3.283,0,0,1,1.042.549,1.409,1.409,0,0,1,.12,1.823,1.589,1.589,0,0,1-1.8.472,3.337,3.337,0,0,1-.943-.655,9.292,9.292,0,0,1-3.069-3.928,10.623,10.623,0,0,1-3.773-.085,25.512,25.512,0,0,0-.324,3c.077,1.007.838,2.1,1.837,1.978a.986.986,0,0,1-.049-1.457,28.434,28.434,0,0,0,4.1,2.569c-.556.514-1.119,1.028-1.675,1.542.2.268.394.528.6.8a3.15,3.15,0,0,1-1.661.275,2.389,2.389,0,0,0-1.619.422c-.429.38-.465,1.2.049,1.436a2.619,2.619,0,0,0,.852.084c.289.028.605.253.542.535.408.619,1.415.12,1.732-.549s.387-1.506.971-1.957a1.306,1.306,0,0,1,1.816.3.577.577,0,0,1,.113.317c-.007.246-.239.415-.429.577-1.14,1-.817,2.809-1.126,4.294a4.749,4.749,0,0,1-3.245,3.506,1.465,1.465,0,0,0,1.577.845,17.34,17.34,0,0,0,1.873-.472c1.549-.317,3.14.345,4.71.19a1.792,1.792,0,0,0,1.38-.669,2.025,2.025,0,0,0,.2-1.309,11.955,11.955,0,0,0-.964-3.794,2.084,2.084,0,0,0,2.513.634c-.021,1.042-.042,2.077-.07,3.119a2.319,2.319,0,0,1,1.549.2c.444.3.556,1.084.077,1.316a1.511,1.511,0,0,1-.866,0,2.682,2.682,0,0,0-2.436.95,2.291,2.291,0,0,1-.746.767,1.732,1.732,0,0,1-.852.056,16.571,16.571,0,0,0-4.337.148c-.521.084-1.183.563-.859.971a.739.739,0,0,0,.408.211c1.478.359,3.112,0,4.484.648a6.612,6.612,0,0,1,2.077,1.83c.915,1.07,1.837,2.14,2.753,3.21l-2.914-.57c-.3-.063-.612-.12-.915-.183-1.119-.218-2.246-.436-3.365-.662a3.2,3.2,0,0,0,.246-1.64,5.679,5.679,0,0,0-2.02.683c.007.275.021.542.028.817q1.89,1.426,3.675,2.978a2.046,2.046,0,0,1-2.2.507A5.547,5.547,0,0,1,14,276.214a12.126,12.126,0,0,0-.246-2.478c-.26-.789-1.063-1.507-1.859-1.267a6.034,6.034,0,0,1-.444,2.7c-.028,1.1-1.605,2.457-.69,3.062.408.268.936.359,1.239.739a.994.994,0,0,1-.486,1.5,2.371,2.371,0,0,0,2.372,1.324,2.008,2.008,0,0,1,.957-.028c.767.3.542,1.654,1.288,2.013a3.967,3.967,0,0,0,.88.155c.831.2,1.612,1.288,2.274.76.556-.444.056-1.436.465-2.013l2.7-.444c-.282.732-.563,1.464-.845,2.189a1.969,1.969,0,0,1-.3.577,2.883,2.883,0,0,1-1.422.627c-.5.162-1.028.62-.866,1.119a1.673,1.673,0,0,0,.4.542,2.193,2.193,0,0,1,.422,2.084,1.075,1.075,0,0,1,1.549.605,1.757,1.757,0,0,1-.577,1.746l-1.5.683c.556,1.112,1.584.993,2.133,2.112.1.2-.268,1.64-.063,1.732a.971.971,0,0,0,.514.035l3.464-.4L26.1,293.5a8.141,8.141,0,0,1,1.274-2.795,2.774,2.774,0,0,1,2.71-1.1,1.884,1.884,0,0,1,2.281-2.2,7.443,7.443,0,0,0-.5-1.542,11.246,11.246,0,0,0,.007-5.146q1.478,3.97,2.957,7.948a32.016,32.016,0,0,0,6.61-1.239c-.042-.662-.084-1.331-.127-1.992.275,0,.542.007.817.007a6.808,6.808,0,0,1,.331-2.2,6.793,6.793,0,0,0-.275-3.745c1.091.528,2.337-.366,3.083-1.324s1.464-2.119,2.654-2.358c.993-.2,2.295.211,2.83-.648a5.119,5.119,0,0,0,.3-.8,2.254,2.254,0,0,1,2.02-1.246,6.653,6.653,0,0,1,2.436.514,2.236,2.236,0,0,1,.986.549,2.186,2.186,0,0,1,.394,1.112,3.172,3.172,0,0,1-.056,1.76,1.106,1.106,0,0,1-1.443.648,2.844,2.844,0,0,0-.176-1.647.989.989,0,0,0-1.408-.415,1.233,1.233,0,0,0-.345.725c-.232,1.169.014,2.379-.148,3.562s-.979,2.443-2.168,2.443c.155-.887.317-1.774.472-2.661.07-.394.106-.887-.225-1.119-.486-.352-1.119.3-1.19.9s.084,1.26-.246,1.76c-.429.634-1.429.648-1.851,1.288a1.4,1.4,0,0,0,.436,1.767,3.992,3.992,0,0,0,1.859.662c.8.141,1.584.289,2.379.429,1.232.225,2.795.873,2.626,2.112,1.331-.31,2.654-.612,3.985-.922A2.148,2.148,0,0,1,60.9,284.5a3.419,3.419,0,0,0-.683-1.767,3.612,3.612,0,0,1,1.7-.929,1.246,1.246,0,0,1,1.457.964c1.373-.859,1.1-3.02.12-4.3s-2.45-2.154-3.344-3.506-.838-3.6.683-4.161c-.683-.7-1.366-1.408-2.056-2.112a11.978,11.978,0,0,0,3.752-.084,1.531,1.531,0,0,0,.781-.31c.345-.317.359-.845.486-1.3s.57-.936.993-.732a13.01,13.01,0,0,0,2.506,4.8c.577.605,1.338,1.316,1.091,2.119a2.332,2.332,0,0,1-.894,1.014,3.684,3.684,0,0,0-1.443,2.253,1.9,1.9,0,0,0,1.309,2.119c.852.176,1.943-.345,2.485.338a1,1,0,0,0,.62,1.345c-.246-1.8-.486-3.59-.732-5.385.979.176,1.19-1.739,2.189-1.781.69-.028,1.028.859,1.654,1.14a1.09,1.09,0,0,0,1.471-.936c0-.324-.141-.627-.169-.943-.07-.88.725-1.549,1.225-2.274S76.593,267.992,75.713,267.9Zm-32.1-13.636a3.407,3.407,0,0,1-3.062,1.19c-.725-.106-1.4-.444-2.126-.493s-1.584.345-1.661,1.07c-.014.106-.007.218-.028.324a.867.867,0,0,1-1.042.556,2.444,2.444,0,0,1-1.1-.7,12.412,12.412,0,0,0-4.048-2.879c-1.323-.5-3.062-1.049-2.527-2.922.317-1.105,2.112-2.295,3.055-2.816,2.154-1.19.8.95,2.626,1.2a2.939,2.939,0,0,0,1.943-.641,6.423,6.423,0,0,1,1.809-1.028,2.5,2.5,0,0,1,2.753,1.162c.324.584.429,1.316.929,1.753.817.718,2.232.26,3.055.971A3.466,3.466,0,0,1,43.611,254.264Z" transform="translate(-3.38 -235.272)" fill="#fff" stroke="#999" stroke-miterlimit="10" stroke-width="1"/>
    </g>
    <path id="패스_1961" data-name="패스 1961" d="M28.535,376.765a13.569,13.569,0,0,1,2.386-.176,3.439,3.439,0,0,1,2.626.859,5.624,5.624,0,0,0,.641.866c.612.535,1.739.359,2.14,1.07a1.942,1.942,0,0,1,.169.852,5.855,5.855,0,0,0,.458,1.859,1.6,1.6,0,0,1-.373,1.809,6.836,6.836,0,0,0-1.535,3.027c-.429,1.5-.964,3.2-2.386,3.837a6.718,6.718,0,0,1-1.873.387c-2.689.352-5.2,1.556-7.835,2.189-3.618.866-7.4.648-11.116.493a4.366,4.366,0,0,0-2.091.26,1.527,1.527,0,0,0-.908,1.725c-1.915-1.183-4.351-2.225-5-3.759-.542-1.281.387-.739.07-1.211a2.726,2.726,0,0,1-.415-1.647c.246-1.774.4-2.6,2.063-3.281a5.314,5.314,0,0,0,1.457-.683,7.173,7.173,0,0,0,1.232-2.133c.641-1.112,2.485-1.3,3.6-1.732,1.746-.676,3.5-1.324,5.28-1.887A80.327,80.327,0,0,1,28.535,376.765Z" transform="translate(1358.616 212.178)" fill="#fff" stroke="#999" stroke-miterlimit="10" stroke-width="1"/>
    <path id="패스_1962" data-name="패스 1962" d="M75.473,154.939,74.241,156.8a1.146,1.146,0,0,1-.584.493c-.993.345-3.541,1.014-3.837-1.162,0,0-1.239-7.441-3.766-8.539a3.793,3.793,0,0,1,0-2.661s.225-1.6-.5-1.95a.255.255,0,0,1-.12-.366,1.654,1.654,0,0,1,2.506-.577s2,1.591,3.175,1.633a3.675,3.675,0,0,0,1.253-.085s-.993,1.746-1.056,1.943a1.538,1.538,0,0,0-.12.788,1.579,1.579,0,0,0,.394.669A13.051,13.051,0,0,1,74.6,151.6c.317,1.148.169,2.387.873,3.337Z" transform="translate(1340.288 281.712)" fill="#fff" stroke="#999" stroke-linecap="round" stroke-linejoin="round" stroke-miterlimit="10" stroke-width="1"/>
    <path id="패스_1963" data-name="패스 1963" d="M77.516,160.51h0l-1.232,1.866a1.147,1.147,0,0,1-.584.493l-1.4,1.119c-1.112.718-.183,2.626-.957,3.7-.232.317-.6.542-.732.908-.218.6.317,1.211.866,1.535s1.2.591,1.478,1.169c.584,1.225-1.028,2.774-.31,3.928a1.486,1.486,0,0,0,2.14.176,2.928,2.928,0,0,0,.866-2.2c.014-.577.12-1.373.7-1.387a.788.788,0,0,1,.7.62c.1.317.092.662.183.986a1.671,1.671,0,0,0,3.161.169l.5-.57a7.542,7.542,0,0,1,1.415-5.569c.57-.753,1.309-1.753.753-2.52-.422-.584-1.373-.577-1.781-1.176-.352-.521-.12-1.211-.127-1.837s-.486-1.64-.993-1.267h0c-.253.774-1.492.866-2.309.922a2.469,2.469,0,0,1-2.119-1.007Z" transform="translate(1338.168 276.141)" fill="#fff" stroke="#999" stroke-linecap="round" stroke-linejoin="round" stroke-miterlimit="10" stroke-width="1"/>
    <g id="그룹_5910" data-name="그룹 5910" transform="translate(1363.393 406.946)">
      <path id="패스_1964" data-name="패스 1964" d="M62.977,160.522l-.5.57a1.671,1.671,0,0,1-3.161-.169c-.092-.324-.084-.662-.183-.986a.8.8,0,0,0-.7-.619c-.577.021-.683.817-.7,1.387a2.876,2.876,0,0,1-.866,2.2,1.485,1.485,0,0,1-2.14-.176c-.718-1.155.887-2.7.31-3.928-.275-.577-.929-.838-1.478-1.169s-1.084-.936-.866-1.535c.134-.366.5-.591.732-.908.774-1.07-.155-2.985.957-3.7l1.345-1.07c-1.07.352-3.414.88-3.7-1.2,0,0-1.239-7.441-3.766-8.539a3.793,3.793,0,0,1,0-2.661s.225-1.6-.5-1.95a.255.255,0,0,1-.12-.366,1.654,1.654,0,0,1,2.506-.577s2,1.591,3.175,1.633a3.782,3.782,0,0,0,1.281-.07,8.054,8.054,0,0,1,3.759-2.788,2.06,2.06,0,0,0,.725-.359,1.275,1.275,0,0,0-.014-1.633,6.292,6.292,0,0,0-1.366-1.14,6.113,6.113,0,0,1-2.358-5.125l-.549-.106a11.848,11.848,0,0,1-4.132-2.077l-.929-.514a.522.522,0,0,0-.31-.056,17.218,17.218,0,0,0-2.548.8,10.773,10.773,0,0,1-3.02.507,1.653,1.653,0,0,1-1.133-.275,1.132,1.132,0,0,1-.007-1.549,1.971,1.971,0,0,1,1.577-.549,4.4,4.4,0,0,0-1.837-.605,1.494,1.494,0,0,0-1.514.986c-.211.866.634,1.859.141,2.6a1.378,1.378,0,0,1-1.521.366l.451.887a8.211,8.211,0,0,0-3.414,1.605,4.37,4.37,0,0,1-.021,2.112,1.548,1.548,0,0,1-1.612,1.112,6.451,6.451,0,0,0-.436-5.653,4.116,4.116,0,0,0-2.295-2.2,1.923,1.923,0,0,0-2.464,1.436,2.832,2.832,0,0,0-.134-1.7c-.275-.507-1.035-.781-1.436-.38-.253.253-.3.7-.612.88-.38.225-.852-.084-1.183-.387-1.443-1.3-2.886-2.584-4.329-3.879a2.493,2.493,0,0,0-1.035-.655.867.867,0,0,0-1.028.465,3.114,3.114,0,0,0-.028.725c-.084.95-1.345,1.253-2.295,1.133s-2.056-.352-2.738.317a.8.8,0,1,1-.4,1.492c.31.683,1.162.887,1.887,1.1s1.542.7,1.5,1.45c-.014.282-.162.549-.19.831s.134.634.422.627c-.662.141-1.331.282-1.992.429a2.216,2.216,0,0,0,.767,1.612,5.75,5.75,0,0,1-2.1.2,1.14,1.14,0,0,0,.3.8,1.024,1.024,0,0,0-1-.535,2.177,2.177,0,0,0,.169,1.922c-.577.155-1.162.31-1.739.472-.028-1.88.049-4.006,1.45-5.266a9.124,9.124,0,0,1-2.464-3.407,12.808,12.808,0,0,0,.591,4.344,5.551,5.551,0,0,1-1.957.155,1.967,1.967,0,0,1-.289-1.4c-.429-.359-1.063.183-1.2.732s-.077,1.183-.465,1.584c.655.486.584,1.471.444,2.281-.063.352-.127.711-.183,1.063-.3-.669-.591-1.345-.887-2.013-.352-.253-.76.324-.662.746s.408.81.352,1.232c-.141,1.056-2.253,1.211-1.964,2.232.134.465.725.612,1.2.556a3.53,3.53,0,0,1,1.429-.084,1.142,1.142,0,0,1,.612,1.591c-.436.436-1.211-.063-1.781.162-.634.246-.556,1.3.035,1.64a1.747,1.747,0,0,0,1.894-.324,12.72,12.72,0,0,0,1.345-1.535.778.778,0,0,1,.345-.26c.338-.106.669.232.739.577a7.546,7.546,0,0,1,.007,1.056c.063.9.817,1.577,1.352,2.309s.8,1.908.056,2.429a12.309,12.309,0,0,1,1.443,6.167,1.438,1.438,0,0,1,1.049,2.14.894.894,0,0,1,.873.908c.479.028.95.056,1.429.092-.169-1.619-.345-3.231-.514-4.85-.415.211-.936-.162-1.077-.612a3.575,3.575,0,0,1,.014-1.394,5.228,5.228,0,0,0-1.316-3.97c.049-.443.1-.88.148-1.323a6.374,6.374,0,0,0,4.034,1.739c.063-.472.12-.943.183-1.415,1.626,1.021-.211,3.985,1.112,5.378-.225-.021-.458-.049-.683-.07a2.469,2.469,0,0,0,1.992,1.429,3.225,3.225,0,0,0-.767,3.985,9.808,9.808,0,0,0,4.3-2.077c-.169,1.2-1.549,1.732-2.668,2.2s-2.337,1.584-1.809,2.675c.113.239.31.458.275.718a2.608,2.608,0,0,1,2.415,2.3,3.3,3.3,0,0,0-2.1,1.126c.275.7,1.514.317,1.943.929a1.285,1.285,0,0,1,.028,1.07l-1.014,3.759c.584.634,1.83-.26,2.443.338.451.443.035,1.26-.542,1.507a12.354,12.354,0,0,1-1.859.331c-.612.155-1.225.746-1.014,1.338a2.6,2.6,0,0,1,2.189.359,1.1,1.1,0,0,0,.549.275c.422.014.662-.521,1.07-.627s.781.239,1.028.57a6.882,6.882,0,0,1,1.309,3.316c.831,1.028,1.661,2.049,2.485,3.076.465.577,1.366,1.176,1.837.605a2.852,2.852,0,0,0,.3-.852c.521-1.373,2.872-.746,3.787-1.894.549-.69.331-1.7.591-2.548.472-1.507,2.267-2.07,3.809-2.408,1.563-.345,3.337-.655,4.66.246.88.6,1.408,1.64,2.344,2.147,1.331.718,2.957.134,4.372-.408a8.549,8.549,0,0,1,3.71-.774,3.28,3.28,0,0,1,2.936,2.084c.246.824.127,1.9.866,2.344s1.675-.148,2.492.07c1.352.366,1.64,2.675,3.041,2.668a1.526,1.526,0,0,0,1.338-1.352,4.453,4.453,0,0,0-.317-2.02c.289-.507,1.084-.183,1.485.246s.936.979,1.464.725c.627-.3.394-1.528.648-2.175-1.64-1.014-1.605-3.259-1.218-5.146a3.783,3.783,0,0,0,.113-2.422c-.76-1.556-3.295-.76-4.689-1.8h-.134Z" transform="translate(-5.322 -118.315)" fill="#fff" stroke="#999" stroke-linecap="round" stroke-linejoin="round" stroke-miterlimit="10" stroke-width="1"/>
      <path id="패스_1965" data-name="패스 1965" d="M95.528,191.55c-.092-.085-.042-.042,0,0Z" transform="translate(-32.009 -139.979)" fill="#fff" stroke="#999" stroke-linecap="round" stroke-linejoin="round" stroke-miterlimit="10" stroke-width="1"/>
    </g>
    <path id="패스_1946" data-name="패스 1946" d="M54.725,72.864a1.2,1.2,0,0,0,.246-.619,2.952,2.952,0,0,1,1.521-1.915c.3.415.612.824.915,1.239.408-.317.817-.634,1.232-.95a.656.656,0,0,1,.563-.2.625.625,0,0,1,.31.345,4.919,4.919,0,0,1,.739,2.4c-.028.852-.451,1.64-.549,2.478s.359,1.887,1.211,1.908c.605.014,1.331-.465,1.732-.021a.929.929,0,0,1,.19.443,2.957,2.957,0,0,1-1.056,2.816c-.38.3-.831.5-1.2.81a13.606,13.606,0,0,0-1.471,1.964,1.817,1.817,0,0,1-2.147.711A3.574,3.574,0,0,1,56.4,83.8a2.893,2.893,0,0,0-2.879-.521,7.319,7.319,0,0,1-1.387.556c-1.119.169-.81-.943-1.492-1.844-.331-.436-1.887-.767-2.218-1.2-.549-.725-1.859-2.6-.8-3.358.331-.232,1.1-.042,1.528-.359a2.294,2.294,0,0,0,.648-.88,6.886,6.886,0,0,1,1.485-2.471,3.187,3.187,0,0,1,1.654-.732C53.444,72.928,54.317,73.273,54.725,72.864Z" transform="translate(1345.668 302.836)" fill="#fff" stroke="#999" stroke-linecap="round" stroke-linejoin="round" stroke-miterlimit="10" stroke-width="1"/>
    <g id="그룹_9195" data-name="그룹 9195" transform="translate(714.051 194.275)">
      <path id="패스_2350" data-name="패스 2350" d="M832.355,202.32l-.348-.348.348-.7v-.348a.531.531,0,0,1-.348-.2v-.152a.355.355,0,0,1-.169-.054,2.807,2.807,0,0,1-.18-.294h.349v-1.393l-.349-.348-.348-.348h-1.045v.348l-.348-.348a1.526,1.526,0,0,0-1.045.348l-.348.348-.349-.348-.348.348h-.7v.348h-.7l-.349.348h-.7a1.218,1.218,0,0,0-.7.348h-1.045l-.348.7h-.348v.348l.348.348.348.348.31.155-.31,1.238v.7a3.588,3.588,0,0,0,.618.7,3.832,3.832,0,0,0,1.283.962,1.144,1.144,0,0,0,.357.36c.284.409.529.414.529.414l.7.348.348-.348h.7l1.045,1.045v-.348a2.4,2.4,0,0,1,1.045-1.741h.349l.7-.348,1.045-1.045A1.684,1.684,0,0,0,832.355,202.32Z" transform="translate(0 0)" fill="none" stroke="#8f8f8f" stroke-width="1" fill-rule="evenodd"/>
      <g id="그룹_9194" data-name="그룹 9194" transform="translate(835.141 214.509)">
        <path id="패스_2351" data-name="패스 2351" d="M844.727,228v.348h.349A.341.341,0,0,0,844.727,228Z" transform="translate(-844.727 -227.652)" fill="none" stroke="#8f8f8f" stroke-width="1" fill-rule="evenodd"/>
        <path id="패스_2352" data-name="패스 2352" d="M846.047,227.726c0-.348-.349,0-.349-.348-.348,0-.348,0-.348.348v.348h.348s.349,0,0-.348Z" transform="translate(-845.001 -227.378)" fill="none" stroke="#8f8f8f" stroke-width="1" fill-rule="evenodd"/>
      </g>
    </g>
  </g>
</svg>
