<svg xmlns="http://www.w3.org/2000/svg" viewBox="0 0 207.193 390.842">
  <defs>
    <style>
      .cls-1, .cls-2 {
        fill: #fff;
        stroke: #999;
        stroke-miterlimit: 10;
      }

      .cls-1 {
        stroke-linecap: round;
        stroke-linejoin: round;
      }
    </style>
  </defs>
  <g id="그룹_6004" data-name="그룹 6004" transform="translate(-139.476 -560.5)">
    <path id="패스_1945" data-name="패스 1945" class="cls-1" d="M104.056,80.664c.965-.26,2.142-.685,2.267-1.679a1.79,1.79,0,0,0-1.476-1.737,10.638,10.638,0,0,0-2.479-.087,7.249,7.249,0,0,1-5.431-3.01C95.75,72.908,92,73.12,90.81,70.978a9.5,9.5,0,0,1-.627-2.393,2.161,2.161,0,0,0-1.534-1.765,1.914,1.914,0,0,1-.82-.154c-.521-.347-.125-1.177.405-1.524s1.216-.627,1.312-1.245c.077-.511-.309-.955-.453-1.457a2.607,2.607,0,0,1,.26-1.794c.82-1.737,2.4-2.981,3.434-4.592s1.331-4.071-.212-5.21c-.83-.608-1.968-.656-2.769-1.3A16.735,16.735,0,0,1,88.5,48.018a12.336,12.336,0,0,0-1.187-.936,7.32,7.32,0,0,1-2.778-5.451c-.029-.81-.1-1.881-.9-2.055a1.782,1.782,0,0,0-.6.019c-1.351.222-2.7.434-4.052.656a1.569,1.569,0,0,1-.791-.01,1.408,1.408,0,0,1-.5-.357l-1.717-1.6a2.468,2.468,0,0,1-.646-.8,3.317,3.317,0,0,1,.087-1.756c.087-.588-.039-1.331-.608-1.524s-1.138.347-1.447.878-.588,1.167-1.177,1.351a1.463,1.463,0,0,1-1.573-.8,6.881,6.881,0,0,1-.55-1.823c-.781-3.029-3.492-5.181-6.309-6.531l-.241-.116c-.164.164-.3.309-.415.444a4.137,4.137,0,0,1-1.023.849,11.772,11.772,0,0,0-5.624,6.821,3.821,3.821,0,0,1-1.206,1.891,24.718,24.718,0,0,0-3.714,4.283c-2.393,6.637-6.965,8.355-9.483,8.789a1.04,1.04,0,0,0-.695.453.988.988,0,0,0-.135.82c1.013,3.984-.521,5.914-.772,6.435a.974.974,0,0,0-.492,1.206c1.37-.405,2.73-.8,4.1-1.206.039.511-.511.878-1.013.984a5.558,5.558,0,0,0-1.5.3c-.83.424-.994,1.524-1.052,2.46a32.777,32.777,0,0,0-.068,5.055,16.868,16.868,0,0,1,.174,2.865,1.562,1.562,0,0,0,.994,1.582,15.693,15.693,0,0,1,5.837,3.492.6.6,0,0,1-.666.955L42.072,73.67a9.914,9.914,0,0,1-2.827-1.582,3.307,3.307,0,0,1-1.2-2.875c.2-1.254,1.37-2.46.569-3.618a2.089,2.089,0,0,0-1.833-.82l-6.213.338a3.213,3.213,0,0,0,.183,2.585q.926,2.518,1.852,5.026A4.45,4.45,0,0,0,33.766,74.7a4.4,4.4,0,0,0,2.557.714c1.708.116,3.406.222,5.113.338a6.661,6.661,0,0,1,3.039.695,2.4,2.4,0,0,1,1.216,2.267.411.411,0,0,1-.357.376,1.634,1.634,0,0,0-1.264,1.688,9.446,9.446,0,0,0,.695,2.47c.55,1.929-.029,3.975-.608,5.895a11.442,11.442,0,0,1-1.341,3.2,3.846,3.846,0,0,1-2.856,1.785,18.023,18.023,0,0,0,6.435,3.319c.367.106.82.289.82.675a.872.872,0,0,1-.183.463c-.791,1.245-1.592,2.489-2.383,3.743a6.977,6.977,0,0,0-3.994-1.544,2.351,2.351,0,0,0-1.409.27,1.022,1.022,0,0,0-.415,1.264c.357.656,1.6.714,1.582,1.466a2,2,0,0,0-1.679,1.582,5.837,5.837,0,0,0,.058,2.45,1.561,1.561,0,0,1,1.061,2.479c.926.193,1.621-.81,1.978-1.688s.859-1.92,1.794-1.978a7.355,7.355,0,0,1,1.2.193c.405.029.9-.183.917-.588a1.236,1.236,0,0,1,.145,1.5,9.145,9.145,0,0,1,2.856.125c-.521.926-1.794,1.061-2.653,1.679-1.437,1.032-1.466,3.174-1.071,4.9a17.132,17.132,0,0,0,1.563,4.264c2.576,1.553,3.9,4.978,6.8,5.759a1.88,1.88,0,0,0,2.084-.5c.675-1.013-.482-2.373-.193-3.56a2.044,2.044,0,0,1,2.074-1.351,5.98,5.98,0,0,1,2.518.83,2.713,2.713,0,0,0-2.161.752,1.541,1.541,0,0,0,.01,2.122,2.228,2.228,0,0,0,1.553.376,14.763,14.763,0,0,0,4.139-.695,24.336,24.336,0,0,1,3.492-1.09.715.715,0,0,1,.424.077l1.273.7a16.236,16.236,0,0,0,5.663,2.846c1.4-.955,1.785-1.225,3.174-2.18.048-1.177,1.409-1.65,1.978-2.663.318-.569.376-1.293.868-1.717.444-.376,1.1-.386,1.592-.695.743-.463.936-1.486,1.573-2.093A3.267,3.267,0,0,1,85.3,114.9a10.873,10.873,0,0,1,4.283.28,2.469,2.469,0,0,0,1.177.145c.4-.087.743-.482.617-.859-.068-.222-.28-.367-.405-.569-.444-.7.27-1.544.917-2.065,1.177-.945,2.354-1.9,3.531-2.846.733-.6,1.862-1.177,2.518-.5a9.369,9.369,0,0,1,1.466-5.306l.3.328c.2.2.579.068.733-.174a1.639,1.639,0,0,0,.164-.839,7.827,7.827,0,0,1,1.023-3.618,8.075,8.075,0,0,0,1.351-2.759,11.559,11.559,0,0,0-.164-2.229,4.83,4.83,0,0,1,1.129-3.357,8.4,8.4,0,0,0,1.167-1.4,4.416,4.416,0,0,0,.357-2.036c.029-1.457-.116-3.213-1.409-3.878-.54-.28-1.283-.376-1.5-.945C102.271,81.465,103.265,80.867,104.056,80.664Zm-37.441,2.47c-.521.405-1.138.685-1.64,1.109a18.648,18.648,0,0,0-2.016,2.692c-.714.878-1.958,1.534-2.942.974a4.9,4.9,0,0,1-.772-.646,3.965,3.965,0,0,0-3.946-.714,10.03,10.03,0,0,1-1.9.762c-1.534.232-1.109-1.293-2.045-2.528-.453-.6-2.585-1.052-3.039-1.65-.752-.994-2.547-3.57-1.1-4.6.453-.318,1.5-.058,2.093-.492a3.144,3.144,0,0,0,.888-1.206c.656-1.225.9-2.441,2.036-3.386a4.367,4.367,0,0,1,2.267-1c.695-.087,1.9.386,2.45-.174a1.65,1.65,0,0,0,.338-.849A4.045,4.045,0,0,1,59.37,68.8c.415.569.839,1.129,1.254,1.7.56-.434,1.119-.868,1.688-1.3a.9.9,0,0,1,.772-.27.857.857,0,0,1,.424.473,6.741,6.741,0,0,1,1.013,3.29c-.039,1.167-.617,2.248-.752,3.4s.492,2.585,1.659,2.614c.83.019,1.823-.637,2.373-.029a1.272,1.272,0,0,1,.26.608A4.065,4.065,0,0,1,66.615,83.134Z" transform="translate(138.445 559.569)"/>
    <g id="그룹_5908" data-name="그룹 5908" transform="translate(159.161 619.582)">
      <path id="패스_1947" data-name="패스 1947" class="cls-1" d="M30.567,74.022a3.575,3.575,0,0,1,.039,1.872,1.626,1.626,0,0,1-1.852,1.129c-.656-.212-1.273-.974-1.862-.617-.164.1-.27.28-.424.4-.434.347-1.071.145-1.592-.068-1.061-.434-2.113-.878-3.174-1.312a.921.921,0,0,1-.482-.338c-.28-.5.434-.936.955-1.177a2.844,2.844,0,0,0,1.553-1.6,1.887,1.887,0,0,0-.569-2.074,4.624,4.624,0,0,0-1.573-.55,1.56,1.56,0,0,1-1.206-1.042,2.364,2.364,0,0,1,.3-1.235,4.2,4.2,0,0,0,0-3.01,1.327,1.327,0,0,1-.145-.627c.048-.376.444-.6.743-.839.55-.453.859-1.187,1.5-1.524a2.325,2.325,0,0,1,2.277.289c.675.424,1.235,1.032,1.92,1.447A18.844,18.844,0,0,1,29,64.259c.492.4.26.916-.058,1.457a3.9,3.9,0,0,0-.4,1.428c.048.849.068,2.393,1.65,5.981Z" transform="translate(-20.364 -61.214)"/>
      <path id="패스_1948" data-name="패스 1948" class="cls-1" d="M42.2,92.177c.077.01-.087-.019,0,0-2.277-.048-3.782-1.476-5.277-3.193a2.517,2.517,0,0,1-.434-.627,1.8,1.8,0,0,1,.415-1.775,17.891,17.891,0,0,1,1.409-1.293,1.039,1.039,0,0,0,.405-.868c-.087-.473-.695-.627-1.167-.579a2.583,2.583,0,0,1-1.409-.01c-.772-.386-.588-1.5-.54-2.364.087-1.457-3.106-5.441-1.939-4.563h0c.695.569,1.688.232,2.585.289,1.708.116,3.406.222,5.113.338a6.661,6.661,0,0,1,3.039.695,2.4,2.4,0,0,1,1.216,2.267.411.411,0,0,1-.357.376,1.634,1.634,0,0,0-1.264,1.688,9.446,9.446,0,0,0,.695,2.47c.55,1.929-.029,5.219-.608,7.139-.338,1.109-.781-.116-1.9,0" transform="translate(-20.823 -61.763)"/>
      <path id="패스_1949" data-name="패스 1949" class="cls-1" d="M28.015,84.809a1.017,1.017,0,0,1-.183.617c-.328.309-.907-.116-1.312.1s-.289.82-.106,1.235c.26.6.666,1.3,1.322,1.293.482-.01.849-.415,1.235-.7a3.682,3.682,0,0,1,2.209-.608,3.433,3.433,0,0,0,1.177-.068.837.837,0,0,0,.627-.888c-.1-.482-.685-.637-1.158-.743C30.562,84.731,28.324,82.281,28.015,84.809Z" transform="translate(-20.571 -62.006)"/>
    </g>
    <path id="패스_1950" data-name="패스 1950" class="cls-1" d="M102.682,97.938a6.428,6.428,0,0,0,1.351-2.759,11.561,11.561,0,0,0-.164-2.229A4.831,4.831,0,0,1,105,89.593a8.4,8.4,0,0,0,1.167-1.4,4.416,4.416,0,0,0,.357-2.036c.029-1.457-.116-3.213-1.409-3.878-.54-.28-1.283-.376-1.5-.945-.289-.772.7-1.37,1.5-1.582.965-.26,2.142-.685,2.267-1.679a1.79,1.79,0,0,0-1.476-1.737,10.622,10.622,0,0,0-2.479-.077,7.249,7.249,0,0,1-5.431-3.01h0c-1.187-1.245-4.939-1.032-6.126-3.174a9.5,9.5,0,0,1-.627-2.393,2.161,2.161,0,0,0-1.534-1.765,1.914,1.914,0,0,1-.82-.154c-.521-.347-.125-1.177.405-1.524S90.507,63.613,90.6,63c.077-.511-.309-.955-.453-1.457a2.607,2.607,0,0,1,.26-1.794c.82-1.737,2.4-2.981,3.434-4.592s1.331-4.071-.212-5.21c-.83-.608-1.968-.656-2.769-1.3a16.739,16.739,0,0,1-1.312-1.524,12.337,12.337,0,0,0-1.187-.936,7.32,7.32,0,0,1-2.778-5.451c-.029-.81-.1-1.881-.9-2.055a1.781,1.781,0,0,0-.6.019c-1.351.222-2.7.434-4.052.656a1.569,1.569,0,0,1-.791-.01,1.408,1.408,0,0,1-.5-.357l-1.717-1.6a2.468,2.468,0,0,1-.646-.8,3.317,3.317,0,0,1,.087-1.756c.1-.588-.039-1.331-.608-1.524s-1.138.347-1.447.878-.588,1.167-1.177,1.351a1.463,1.463,0,0,1-1.573-.8,6.881,6.881,0,0,1-.55-1.823c-.781-3.029-3.57-5.335-6.4-6.7h0a6.379,6.379,0,0,1,3.232-1.737,4.122,4.122,0,0,0,1.167-.309,5.328,5.328,0,0,1,2.634-.666l5.229.077a4.4,4.4,0,0,0,2.036-.444c1.167-.569,3.4-1.273,5.123.463a4.165,4.165,0,0,0,1.6.965c1.717.579,3.116.338,3.878-.617a3.728,3.728,0,0,1,2.528-.839c5.21.27,8.374.048,9.406-.666l.579-.232a.792.792,0,0,1,.965.309c.2.318.453.695.695,1.032a2.179,2.179,0,0,0,2.759.685,6.28,6.28,0,0,1,5.943-.222,3.115,3.115,0,0,0,1.727.4c2.47-.106,8.663-.868,12.821-5.615.28-.241,6.917-5.9,5.374-13.333a3.23,3.23,0,0,1,.733-2.759A10.119,10.119,0,0,1,136.728.49h0c1.65,3.068,2.769,5.48,4.418,8.548a14.128,14.128,0,0,1,2.045,5.538,7.544,7.544,0,0,0,.222,1.929c.405,1.177,1.669,1.929,1.958,3.135a27.3,27.3,0,0,0,3.4,7.853,17.12,17.12,0,0,1,1.505,2.692c.56,1.437.6,3.02,1.052,4.486a16.524,16.524,0,0,0,2.769,4.785c1.486,2.016,3.541,3.618,4.447,5.952a17.678,17.678,0,0,0,.666,1.669,10.688,10.688,0,0,0,1.563,2.113q2.778,3.169,5.557,6.329c1.331,1.515,2.73,3.193,2.865,5.21.029.4.4.955.627.637a12.267,12.267,0,0,0,3.888,4.081c1.524,1.119,3.029,2.566,3.2,4.447a11.882,11.882,0,0,0,.106,1.659c.309,1.38,1.7,2.2,2.47,3.386,1.09,1.7.81,3.965,1.746,5.75.733,1.389,2.122,2.344,2.836,3.743a25.893,25.893,0,0,0,1.138,2.711c.646.994,1.765,1.573,2.547,2.45a21.809,21.809,0,0,1,2.036,3.589c1.447,2.421,4.148,4.119,4.843,6.85a2.371,2.371,0,0,1,.039,1.245,9.712,9.712,0,0,1-.453.965c-.434,1.023.367,1.949.145,2.807-.212.83-.579.531-1.409.724a7.14,7.14,0,0,0-4.409,3.338c-.83,1.312-1.563,2.856-3,3.444-2.421.994-4.92-1.341-7.535-1.466-1.833-.087-3.618.936-5.431.637-.791-.125-1.515-.5-2.3-.646a2.1,2.1,0,0,0-2.161.646c-.212.309-.28.695-.463,1.013-.627,1.09-2.229,1.119-3.386.637s-2.2-1.312-3.444-1.5a1.227,1.227,0,0,0-.868.116c-.791.5-.135,1.717.56,2.344a6.3,6.3,0,0,1-4.949-.81,21.885,21.885,0,0,0-4.611-2.3,36.853,36.853,0,0,0-4-.473c-4.505-.637-8.277-4.052-12.8-4.544-.531-.058-1.177-.145-1.37-.646-.376-.936,1.283-1.418,1.563-2.383a16.277,16.277,0,0,0-15.59.627,5.018,5.018,0,0,0-2.6-2.971,3.347,3.347,0,0,0-3.743.666,2.556,2.556,0,0,0,.193,3.608c-1.264.405-2.528.82-3.791,1.225-2.093.675-3.6.82-5.335-.531,0,0-2.151-1.582-1.891-3.415C101.621,102.4,101.833,99.154,102.682,97.938Z" transform="translate(137.233 560.51)"/>
    <path id="패스_1951" data-name="패스 1951" class="cls-1" d="M76.5,127.856a8.351,8.351,0,0,0,3.232,7.023,8.622,8.622,0,0,1,1.872,1.563,1.748,1.748,0,0,1,.019,2.238,2.743,2.743,0,0,1-.994.492,11.017,11.017,0,0,0-6.541,6.464,2.011,2.011,0,0,0-.164,1.081,2.164,2.164,0,0,0,.54.916c1.64,1.939,3.444,3.878,4.129,6.319.444,1.563.424,3.328,1.389,4.631a3.383,3.383,0,0,0,2.9,1.38c1.119-.087,2.817-.2,3.164-1.264h0c.695-.5,1.36.878,1.36,1.737s-.309,1.814.174,2.518c.56.82,1.862.81,2.441,1.611.762,1.052-.26,2.412-1.032,3.454a10.411,10.411,0,0,0-1.939,7.631c1.9,1.418,5.383.328,6.425,2.47.492,1.013.068,2.209-.154,3.319-.531,2.585.28,5.605,2.528,7a10.118,10.118,0,0,0,3.521,1.129c1.5.289,3.02.569,4.525.859a15.133,15.133,0,0,0,4.052.4,7.965,7.965,0,0,0,6.908-8.953c-.222-1.264-.434-3.077.82-3.338.039.82,1.206,1.158,1.9.733a3.711,3.711,0,0,0,1.3-2.016c.463-1.3.569-3.29-.791-3.521a3.056,3.056,0,0,0-1.756.54c-1.775.839-3.811.733-4.37-1.148-1.254-.453-2.508-.917-3.753-1.37a.9.9,0,0,1-.4-.222c-.318-.347.01-.888.289-1.283,1.312-1.9.984-4.428,1.081-6.744.106-2.672.859-5.325.617-8s-1.891-5.518-4.544-5.885a9.142,9.142,0,0,1,6.425-2.817,5.729,5.729,0,0,0,1.949-.183,1.365,1.365,0,0,0,.936-1.524,1.978,1.978,0,0,0-.994-.965c-1.225-.7-2.46-1.4-3.685-2.1,1.148-.511,2.306-1.032,3.454-1.544a4.875,4.875,0,0,1,1.823-.55c1.833-.077,3.541,1.794,5.258,1.158.753-1.833-1.4-3.888-.743-5.759.521-1.466,2.393-1.852,3.955-1.852s3.338.077,4.39-1.071c.569-.617.868-1.563,1.65-1.872a2.656,2.656,0,0,1,1.428-.019,7.141,7.141,0,0,1,2.856.907,2.426,2.426,0,0,1,1.129,2.585c2.093-.328,4.177-.666,6.271-.994.646-.791-.945-1.64-1.071-2.663a1.855,1.855,0,0,1,.27-1.042,29.607,29.607,0,0,1,8.48-10.535c1.553-1.206,3.444-2.306,5.374-1.939l1.515.347a21.884,21.884,0,0,0-4.611-2.3,36.856,36.856,0,0,0-4-.473c-4.505-.637-8.277-4.052-12.8-4.544-.531-.058-1.177-.145-1.37-.646-.376-.936,1.283-1.418,1.563-2.383a16.277,16.277,0,0,0-15.59.627,5.018,5.018,0,0,0-2.6-2.971,3.347,3.347,0,0,0-3.743.666,2.547,2.547,0,0,0,.193,3.608c-1.264.405-2.528.82-3.791,1.225-2.093.675-3.6.82-5.335-.531,0,0-2.151-1.582-1.891-3.415-.154.241-.531.376-.733.174l-.3-.328a9.22,9.22,0,0,0-1.466,5.306c-.666-.675-1.785-.087-2.518.5-1.177.945-2.354,1.9-3.531,2.846-.646.521-1.36,1.37-.916,2.065a2.912,2.912,0,0,1,.405.569c.125.376-.232.772-.617.859A2.483,2.483,0,0,1,91.1,117.9a10.873,10.873,0,0,0-4.283-.28,3.267,3.267,0,0,0-1.862.724c-.637.608-.83,1.621-1.573,2.093-.492.309-1.148.318-1.592.695-.492.424-.56,1.148-.868,1.717-.56,1.023-1.929,1.486-1.978,2.663-1.4.955-1.785,1.225-3.174,2.18Z" transform="translate(136.91 556.852)"/>
    <path id="패스_1952" data-name="패스 1952" class="cls-1" d="M107.639,203.3c-2.016,3.531-8.248,3.106-9.618,6.927a6.754,6.754,0,0,1-.531,1.437c-.415.646-1.187.965-1.708,1.524A5.17,5.17,0,0,0,94.76,215.4c-.54,1.91-1.071,3.82-1.611,5.74a11.907,11.907,0,0,1-.878,2.421,8.97,8.97,0,0,0-.724,1.38,4.065,4.065,0,0,0-.183,1.447,8.846,8.846,0,0,0,2.219,5.673c1.032,1.148,2.479,2.344,2.2,3.859a5.928,5.928,0,0,1-.878,1.765c-.608,1.09-.839,2.344-1.38,3.463a3.31,3.31,0,0,1-2.817,2.122,6.48,6.48,0,0,1-2.46-1,6.2,6.2,0,0,0-6.9,1.187,4.64,4.64,0,0,1-1.737,1.428,3.873,3.873,0,0,1-2.4-.415,13.207,13.207,0,0,0-9.966.357,9.456,9.456,0,0,1-3.367,1.225c-2.74.145-4.65-2.942-4.621-5.682a18.686,18.686,0,0,0,.029-2.749,2.629,2.629,0,0,0-1.466-2.171,1.465,1.465,0,0,0-2,1.187c.01.338.174.646.193.984.1,1.37-2.026,1.794-3.116.965s-1.582-2.229-2.537-3.222a6.618,6.618,0,0,0-3.28-1.688c-2.142-.5-4.959-.01-5.605,2.093a10.294,10.294,0,0,0-.222,2.045,6.918,6.918,0,0,1-4.563,5.412,12.334,12.334,0,0,1-7.332.116,3.481,3.481,0,0,1-1.37-.588,3.58,3.58,0,0,1-.82-1.138q-1.78-3.27-3.55-6.531a12.386,12.386,0,0,1,2.721-4.1,6.585,6.585,0,0,1,6.107-1.351,2.019,2.019,0,0,1,3.521-1.65,1.528,1.528,0,0,0,.135-2.364,3.008,3.008,0,0,0-2.6-.569c-.907.154-1.765.521-2.682.656-2.007.3-3.994-.511-5.856-1.312a1.381,1.381,0,0,1-.7-.492c-.328-.55.2-1.206.695-1.611,1.968-1.6,4.2-2.875,6.03-4.631s3.28-4.148,3.078-6.676a11.9,11.9,0,0,1,7.4,1.968,2.992,2.992,0,0,0-.81-4.93,8.645,8.645,0,0,1-1.515-.473c-.463-.26-.791-.9-.473-1.331a1.272,1.272,0,0,1,.945-.4,24.624,24.624,0,0,0,3.676-.405,3.9,3.9,0,0,0,2.8-2.2,31.818,31.818,0,0,1-9.975.714,2.177,2.177,0,0,1-2.267-1.544l-1.273-2.634a1.179,1.179,0,0,1-.164-.666c.068-.347.434-.531.752-.656a13.055,13.055,0,0,1,5.7-.83l2.749-.945a3.908,3.908,0,0,0,.415-1.167c.714-1.881,3.936-1.023,5.19-2.6.752-.945.453-2.335.81-3.492.646-2.065,3.106-2.836,5.219-3.3,2.142-.473,4.573-.9,6.387.338,1.206.82,1.929,2.248,3.213,2.942,1.823.984,4.052.183,5.991-.56a11.715,11.715,0,0,1,5.084-1.061,4.5,4.5,0,0,1,4.023,2.856c.338,1.129.174,2.6,1.187,3.213.994.6,2.3-.2,3.415.1,1.852.5,2.248,3.666,4.168,3.656a2.091,2.091,0,0,0,1.833-1.852,6.1,6.1,0,0,0-.434-2.769c.4-.695,1.486-.251,2.036.338s1.283,1.341,2.007.994c.859-.415.54-2.093.888-2.981h0c-2.248-1.389-2.1-4.467-1.563-7.052h0a6.749,6.749,0,0,0,2.634,7,10.118,10.118,0,0,0,3.521,1.129c1.5.289,3.02.569,4.525.859a15.136,15.136,0,0,0,4.052.4l1.119-.116h0a10.6,10.6,0,0,1,1.225,5.991Z" transform="translate(138.683 554.029)"/>
    <path id="패스_1953" data-name="패스 1953" class="cls-1" d="M110.582,200.07l-.888,3.791c-2.016,3.531-8.248,3.106-9.618,6.927a6.753,6.753,0,0,1-.531,1.437c-.415.646-1.187.965-1.708,1.524a5.171,5.171,0,0,0-1.023,2.209c-.54,1.91-1.071,3.82-1.611,5.74a11.906,11.906,0,0,1-.878,2.421,8.971,8.971,0,0,0-.724,1.38,4.065,4.065,0,0,0-.183,1.447,8.846,8.846,0,0,0,2.219,5.673c1.032,1.148,2.479,2.344,2.2,3.859a5.928,5.928,0,0,1-.878,1.765c-.608,1.09-.839,2.344-1.38,3.463a3.31,3.31,0,0,1-2.817,2.122l-.453,1.476c.926,1.679,1.36,4.187,2.421,5.788.4.6,1.756,2.721,2.19,3.28,2.306,2.962,1.949,6.28,4.563,8.374,2.846,2.277,2.354,5.123,1.409,7.631,1.428.01,2.74.733,4.129,1.08s3.135.164,3.82-1.09c.376-.695.492-1.717,1.264-1.872a6.336,6.336,0,0,0,4.418.579,1.182,1.182,0,0,0,.588-.27c.405-.4.164-1.119-.251-1.505a10.236,10.236,0,0,1-1.322-1.081c1.418-.733,2.827-1.466,4.245-2.2-.5,2.055-.994,4.119-1.5,6.174a1.767,1.767,0,0,0-.019,1.158,1.856,1.856,0,0,0,.531.6c.859.724,1.727,1.437,2.585,2.161,1.727,1.437,3.8,2.971,6.01,2.508a2.984,2.984,0,0,1,5.171-2.383c.289.318.6.733,1.013.675.753-.106.482-1.264.743-1.978a1.426,1.426,0,0,1,2.007-.569,2.585,2.585,0,0,1,1.109,2.007,3.576,3.576,0,0,0-1.8.232,1.207,1.207,0,0,0-.617,1.534,1.527,1.527,0,0,0,.791.588,4.919,4.919,0,0,0,5.489-2.036,9.013,9.013,0,0,0,1.235-6.049c.849.6,2.113-.106,2.47-1.081a5.131,5.131,0,0,0-.193-3.058l-.637-2.344c2.142-.6,4.959-.965,6.126.936a2.357,2.357,0,0,0,.521.733c.492.357,1.187.058,1.717-.241,1.293-2.74-2.431-5.817-1.486-8.692.974,1.9,2.219,4,4.322,4.4a11.867,11.867,0,0,1,1.756.27,1.264,1.264,0,0,1,.936,1.331,5.054,5.054,0,0,1,4.939,1.283l2.875-.685a9.286,9.286,0,0,0-2.74-3.56c1.457-.106,2.914-.2,4.37-.309a2.763,2.763,0,0,0,1.428-.367c1.1-.781.511-2.528.916-3.811.916-2.942,6.28-2.325,7.1-5.3a1.919,1.919,0,0,1,.309-.81,1.513,1.513,0,0,1,.9-.347c3.849-.666,6.531-4.071,8.827-7.236l1.65-1.1c-.174-.4-.164-.859-.3-1.273-.753-2.344-4.708-1.524-6.184-3.492-.791-1.052-.752-2.788-1.949-3.338a3.34,3.34,0,0,0-1.486-.164,9.792,9.792,0,0,1-3.926-.8c-.753-.328-1.534-.849-1.669-1.659s.907-1.659,1.5-1.109l1.563-1.534a13.655,13.655,0,0,1-1.968-1.7c-1.949-1.553-4.833-1.167-7.12-.164s-4.361,2.537-6.792,3.126c-2.721.666-5.576.077-8.277-.646-1.794-.482-3.8-1.245-4.428-2.991l-.569.154a11.169,11.169,0,0,1-4.554.376l-1.553-.868c-1.6.7-3.3-.56-4.862-1.351-2.817-1.437-6.126-1.409-9.281-1.341a7.441,7.441,0,0,0-1.081-7.978,11.872,11.872,0,0,0-3.936-2.711,33.35,33.35,0,0,0-6.628-2.325,7.525,7.525,0,0,1-2.894-1.061c-1.669-1.273-1.852-3.676-1.669-5.74" transform="translate(136.26 553.472)"/>
    <path id="패스_1954" data-name="패스 1954" class="cls-1" d="M191.825,239.2c-.174-.4.135-.859,0-1.273-.752-2.344-4.939-1.524-6.415-3.492-.791-1.052-.752-2.788-1.949-3.338a3.34,3.34,0,0,0-1.486-.164,9.792,9.792,0,0,1-3.926-.8,2.519,2.519,0,0,1-1.669-1.659c-.135-.81.907-1.659,1.5-1.109l1.563-1.534h.154c.83-.5-.27-1.949.318-2.721.367-.482,1.119-.347,1.717-.444,1.5-.241,2.113-1.987,2.7-3.386s2.065-3.492,3.367-2.73c6.676-.048,6.29,3.01,7.3,3.695,1.312.888,1.679-.367,3.222-.7a12.725,12.725,0,0,1,8.615,1.225l-2.875,1.409a18.737,18.737,0,0,1,.762,10.863c-.174.743-.743,1.659-1.437,1.38-.135-1.273-.26-2.547-.4-3.82l-1.679.26a4.587,4.587,0,0,1,.646,2.248,1.576,1.576,0,0,1-1.466,1.544,16.466,16.466,0,0,0,.463,6.271,4.949,4.949,0,0,1,.463,1.872c-.116,1.823-2.479,2.421-4.3,2.518-.1-1.544-.309-3.3-1.582-4.177-1.1-.733-3.078-.7-3.618-1.929-.174-.4.135-.859,0-1.273Z" transform="translate(133.296 552.896)"/>
    <path id="패스_1955" data-name="패스 1955" class="cls-1" d="M191.47,238.71c.135.415-.174.868,0,1.273V238.71c.135.415-.174.868,0,1.273.531,1.225,2.518,1.2,3.618,1.958,1.273.878,1.486,2.634,1.582,4.177l-1.621,1.216c-1.621.646-1.5,2.914-1.872,4.611a11.585,11.585,0,0,1-2.277,4.216,9.4,9.4,0,0,1-1.09,1.3,7.313,7.313,0,0,1-4.6,1.563,21.6,21.6,0,0,0,.984,3.473,5.121,5.121,0,0,1-4.274-1.206,2.084,2.084,0,0,0,1.466,2.643c-1.679.839-4.274-1.312-5.335.241-.415.617-.5,1.727-1.245,1.679a3.311,3.311,0,0,1,.1-3.676,3.993,3.993,0,0,0-3.762.984,1.789,1.789,0,0,0-1.939-1.3,5.37,5.37,0,0,0-2.344.965h-.367a9.286,9.286,0,0,0-2.74-3.56c1.457-.106,2.913-.2,4.37-.309a2.763,2.763,0,0,0,1.428-.367c1.1-.781.511-2.528.916-3.811.917-2.942,6.28-2.325,7.1-5.3a1.92,1.92,0,0,1,.309-.81,1.513,1.513,0,0,1,.9-.347c3.849-.666,6.531-4.071,8.827-7.236l1.65-1.1c-.174-.4-.164-.859-.3-1.273h.521Z" transform="translate(133.671 552.109)"/>
    <path id="패스_1956" data-name="패스 1956" class="cls-1" d="M149.847,222.752c-.82-2.277,1.409-4.563,3.251-6.136a14.867,14.867,0,0,1,4.679-3.058,4.983,4.983,0,0,0,1.929-.849c.888-.83.762-2.277,1.341-3.338.685-1.264,2.286-1.891,2.759-3.251s-.415-2.769-.781-4.158c-.6-2.257-.116-5.248-2.142-6.406-1.245-.7-2.8-.26-4.148.193-2.393.81-4.795,1.63-7.187,2.441a1.307,1.307,0,0,0-.637.357c-.675.81.926,2.219.183,2.981a30.406,30.406,0,0,0-5.759,2.335c-.531.28-1.138.752-.984,1.331.116.444.608.646,1.032.791,1.293.434,2.6.868,3.888,1.312a1.194,1.194,0,0,1-.434,1.544,10.49,10.49,0,0,1-1.592.762,4.526,4.526,0,0,0-2.151,3.926,13.421,13.421,0,0,0,.926,4.573,9.328,9.328,0,0,0-3-.463l2.344,4.718,1.553.868a12.737,12.737,0,0,0,4.93-.473h0" transform="translate(134.543 553.644)"/>
    <path id="패스_1957" data-name="패스 1957" class="cls-1" d="M142.144,219.523l-2.344-4.718a9.071,9.071,0,0,1,3,.463,13.2,13.2,0,0,1-.926-4.573,4.569,4.569,0,0,1,2.151-3.926,11.5,11.5,0,0,0,1.592-.762,1.2,1.2,0,0,0,.434-1.544c-1.293-.434-2.6-.868-3.888-1.312-.434-.145-.916-.357-1.032-.791-.154-.579.453-1.052.984-1.331a31.731,31.731,0,0,1,5.759-2.335c.743-.762-.868-2.161-.183-2.981a1.306,1.306,0,0,1,.637-.357c2.393-.81,4.795-1.63,7.187-2.441,1.351-.463,2.9-.907,4.148-.193,2.026,1.158,1.544,4.148,2.142,6.406.367,1.389,1.245,2.8.781,4.158s-2.074,1.987-2.759,3.251c-.579,1.071-.453,2.508-1.341,3.338a4.983,4.983,0,0,1-1.929.849,14.867,14.867,0,0,0-4.679,3.058c-1.843,1.573-4.071,3.859-3.251,6.136l-.125.029c.666,1.688,2.634,2.431,4.39,2.9,2.7.724,5.557,1.312,8.277.646,2.421-.589,4.505-2.122,6.792-3.126s5.161-1.4,7.12.164a14.2,14.2,0,0,0,1.968,1.7c.83-.5-.27-1.949.318-2.721.367-.482,1.119-.347,1.717-.444,1.5-.241,2.113-1.987,2.7-3.386s2.065-3.492,3.367-2.73c6.676-.048,6.29,3.01,7.3,3.695,1.312.888,1.679-.367,3.222-.7a12.725,12.725,0,0,1,8.615,1.225l3.328-19.825a6.119,6.119,0,0,1,.859-2.614c.376-.531.916-.926,1.293-1.457,1-1.389.7-3.3.357-4.978-1.119-.309-2.19.627-2.836,1.592s-1.225,2.093-2.306,2.528a4.452,4.452,0,0,1-1.891.193c-1.765-.077-4.062-.666-4.148-2.441-.087-1.833,2.47-2.962,2.431-4.8a4.146,4.146,0,0,0-.888-2.036,16.672,16.672,0,0,1-.762-16.236,27.14,27.14,0,0,0,1.843-3.666c1-2.981.058-6.213-.714-9.261s-1.322-6.483.328-9.165a20.6,20.6,0,0,0,1.254-1.929,6.393,6.393,0,0,0,.405-3.3c-.347-3.676-1.987-7.072-3.27-10.525s-2.219-7.274-1.138-10.805a3.529,3.529,0,0,0,.251-2.393,4.151,4.151,0,0,0-.888-1.08,5.071,5.071,0,0,1-1.109-4.882l-.54-.994c-.212.83-.579.531-1.409.724a7.14,7.14,0,0,0-4.409,3.338c-.83,1.312-1.563,2.856-3,3.444-2.421.994-4.92-1.341-7.535-1.466-1.833-.087-3.618.936-5.431.637-.791-.125-1.515-.5-2.3-.646a2.1,2.1,0,0,0-2.161.646c-.212.309-.28.695-.463,1.013-.627,1.09-2.229,1.119-3.386.637s-2.2-1.312-3.444-1.5a1.227,1.227,0,0,0-.868.116c-.791.5-.135,1.717.56,2.344a6.3,6.3,0,0,1-4.949-.81h0l-1.515-.347c-1.929-.367-3.82.733-5.374,1.939a29.711,29.711,0,0,0-8.48,10.535,2.026,2.026,0,0,0-.27,1.042c.125,1.013,1.717,1.862,1.071,2.663-2.093.328-4.177.666-6.271.994a2.432,2.432,0,0,0-1.129-2.585,7.141,7.141,0,0,0-2.856-.907,2.752,2.752,0,0,0-1.428.019c-.781.309-1.08,1.254-1.65,1.872-1.052,1.148-2.836,1.071-4.39,1.071s-3.434.386-3.955,1.852c-.656,1.872,1.486,3.926.743,5.759-1.717.627-3.425-1.235-5.258-1.158a5.175,5.175,0,0,0-1.823.55c-1.148.511-2.306,1.032-3.454,1.544,1.225.7,2.46,1.4,3.685,2.1a1.871,1.871,0,0,1,.994.965,1.361,1.361,0,0,1-.936,1.524,5.707,5.707,0,0,1-1.949.183,9.1,9.1,0,0,0-6.425,2.817c2.653.367,4.3,3.222,4.544,5.885s-.511,5.316-.617,8c-.1,2.306.241,4.843-1.081,6.744-.27.4-.608.926-.289,1.283a1,1,0,0,0,.4.222c1.254.453,2.508.916,3.753,1.37.56,1.881,2.6,1.987,4.37,1.148a3.056,3.056,0,0,1,1.756-.54c1.36.232,1.254,2.219.791,3.521a3.592,3.592,0,0,1-1.3,2.016c-.7.424-1.862.087-1.9-.733-1.254.251-1.042,2.074-.82,3.338.743,4.177-1.881,8.5-6.107,8.837a10.6,10.6,0,0,1,1.225,5.991c-.183,2.065,0,4.467,1.659,5.711a7.746,7.746,0,0,0,2.894,1.061,32.374,32.374,0,0,1,6.628,2.325,11.872,11.872,0,0,1,3.936,2.711,7.441,7.441,0,0,1,1.081,7.978c3.155-.068,6.464-.1,9.281,1.341,1.553.791,3.261,2.045,4.862,1.351h.4Z" transform="translate(135.753 556.68)"/>
    <path id="패스_1958" data-name="패스 1958" class="cls-1" d="M44.486,264.572a3.35,3.35,0,0,0,1.5.955,1.183,1.183,0,0,0,1.428-.762c.029-.145.019-.3.039-.444.106-.994,1.283-1.534,2.286-1.466s1.929.531,2.914.675a4.589,4.589,0,0,0,4.978-6.068c-1.129-.974-3.068-.357-4.187-1.331-.685-.6-.82-1.611-1.273-2.4a3.438,3.438,0,0,0-3.772-1.592,8.8,8.8,0,0,0-2.479,1.409,4.028,4.028,0,0,1-2.663.878c-2.5-.338-.656-3.27-3.6-1.64-1.293.714-3.753,2.344-4.187,3.859-.733,2.566,1.65,3.319,3.463,4A16.672,16.672,0,0,1,44.486,264.572Z" transform="translate(138.27 551.639)"/>
    <g id="그룹_5909" data-name="그룹 5909" transform="translate(140 787.503)">
      <path id="패스_1959" data-name="패스 1959" class="cls-1" d="M11.112,305.232a11.227,11.227,0,0,0-3.492.627,3.946,3.946,0,0,0-2.412,2.45,1.784,1.784,0,0,1-.289.772c-.3.347-.83.309-1.293.328A3.518,3.518,0,0,0,.712,314.02c.907.029,1.8.058,2.711.077a2.1,2.1,0,0,1-.2,2.007,7,7,0,0,0,4.573.087,20.358,20.358,0,0,0,4.226-1.93,4.712,4.712,0,0,0,1.582-1.187c.347-.463,1.679.328,1.968-.174a9.419,9.419,0,0,1,1.64-1.978c.685-.714.453-3.251.27-4.235-.193-1.071-1.216-1.756-2.142-2.325-1-.608-2-1.216-3-1.823-.01.386-.01.762-.019,1.148Z" transform="translate(-0.502 -237.645)"/>
      <path id="패스_1960" data-name="패스 1960" class="cls-2" d="M99.97,279.986c-1.206-.125-1.621,1.573-2.518,2.383a2.815,2.815,0,0,1-3.1.222,8.371,8.371,0,0,1-2.45-2.18c-1.293-1.505-2.672-3.242-2.537-5.219.068-1.032,1.032-2.2,1.958-1.746.26,1.206.531,2.412.791,3.618a42.405,42.405,0,0,0,7.274-4.631l.357-.83c.945-2.5,1.437-5.354-1.409-7.631-2.614-2.093-2.257-5.412-4.563-8.374-.434-.56-1.8-2.682-2.19-3.28-1.061-1.6-1.5-4.1-2.421-5.788l.453-1.476-2.093-1a6.2,6.2,0,0,0-6.9,1.187,4.64,4.64,0,0,1-1.737,1.428,3.873,3.873,0,0,1-2.4-.415,13.207,13.207,0,0,0-9.966.357,9.456,9.456,0,0,1-3.367,1.225c-2.74.145-4.65-2.942-4.621-5.682a18.686,18.686,0,0,0,.029-2.749,2.629,2.629,0,0,0-1.466-2.171,1.465,1.465,0,0,0-2,1.187c.01.338.174.646.193.984.1,1.37-2.026,1.794-3.116.965s-1.582-2.229-2.537-3.222a6.618,6.618,0,0,0-3.28-1.688c-2.142-.5-4.959-.01-5.605,2.093a10.293,10.293,0,0,0-.222,2.045A6.918,6.918,0,0,1,35.969,245a12.334,12.334,0,0,1-7.332.116,3.481,3.481,0,0,1-1.37-.589,3.58,3.58,0,0,1-.82-1.138q-1.78-3.27-3.55-6.531l-1.187,1a6.693,6.693,0,0,0-1.187,2.479,2.275,2.275,0,0,0,.974,2.4c.424.232.936.27,1.331.54s.569.955.154,1.187c-.473.27-.936-.338-1.312-.733a2.129,2.129,0,0,0-2.6-.3,16,16,0,0,1-.637,3.762,17.076,17.076,0,0,1-1.148,2.489,3.312,3.312,0,0,1-.675.984c-.781.695-1.968.54-2.991.338l.588.26a5.457,5.457,0,0,1,.1,2.971,7.316,7.316,0,0,0,3.84.685c-.772.531-.55,1.737-.106,2.566a8.526,8.526,0,0,0,4.187,3.791,4.5,4.5,0,0,1,1.428.753,1.93,1.93,0,0,1,.164,2.5,2.177,2.177,0,0,1-2.47.646,4.574,4.574,0,0,1-1.293-.9c-1.727-1.534-3.531-3.174-4.206-5.383a14.557,14.557,0,0,1-5.171-.116,34.962,34.962,0,0,0-.444,4.11c.106,1.38,1.148,2.875,2.518,2.711a1.351,1.351,0,0,1-.068-2,38.966,38.966,0,0,0,5.624,3.521c-.762.7-1.534,1.408-2.3,2.113.27.367.54.724.82,1.09a4.317,4.317,0,0,1-2.277.376,3.273,3.273,0,0,0-2.219.579c-.588.521-.637,1.65.068,1.968a3.59,3.59,0,0,0,1.167.116c.4.039.83.347.743.733.56.849,1.939.164,2.373-.753s.531-2.065,1.331-2.682a1.79,1.79,0,0,1,2.489.415.791.791,0,0,1,.154.434c-.01.338-.328.569-.588.791-1.563,1.37-1.119,3.849-1.544,5.885a6.508,6.508,0,0,1-4.447,4.8,2.008,2.008,0,0,0,2.161,1.158,23.769,23.769,0,0,0,2.566-.646c2.122-.434,4.3.473,6.454.26a2.456,2.456,0,0,0,1.891-.917,2.776,2.776,0,0,0,.28-1.794,16.383,16.383,0,0,0-1.322-5.2,2.855,2.855,0,0,0,3.444.868c-.029,1.428-.058,2.846-.1,4.274a3.178,3.178,0,0,1,2.122.27c.608.405.762,1.486.106,1.8a2.07,2.07,0,0,1-1.187,0,3.675,3.675,0,0,0-3.338,1.3,3.14,3.14,0,0,1-1.023,1.052,2.374,2.374,0,0,1-1.167.077,22.708,22.708,0,0,0-5.943.2c-.714.116-1.621.772-1.177,1.331a1.013,1.013,0,0,0,.56.289c2.026.492,4.264,0,6.145.888a9.061,9.061,0,0,1,2.846,2.508c1.254,1.466,2.518,2.933,3.772,4.4l-3.994-.781c-.415-.087-.839-.164-1.254-.251-1.534-.3-3.078-.6-4.611-.907a4.383,4.383,0,0,0,.338-2.248,7.783,7.783,0,0,0-2.769.936c.01.376.029.743.039,1.119q2.59,1.954,5.036,4.081a2.8,2.8,0,0,1-3.01.695,7.6,7.6,0,0,1-5.557-6.4,16.617,16.617,0,0,0-.338-3.4c-.357-1.081-1.457-2.065-2.547-1.737a8.269,8.269,0,0,1-.608,3.7c-.039,1.505-2.2,3.367-.945,4.2.56.367,1.283.492,1.7,1.013A1.362,1.362,0,0,1,12,297.216a3.249,3.249,0,0,0,3.251,1.814,2.753,2.753,0,0,1,1.312-.039c1.052.415.743,2.267,1.765,2.759a5.435,5.435,0,0,0,1.206.212c1.138.27,2.209,1.765,3.116,1.042.762-.608.077-1.968.637-2.759l3.7-.608c-.386,1-.772,2.007-1.158,3a2.7,2.7,0,0,1-.415.791,3.951,3.951,0,0,1-1.949.859c-.685.222-1.409.849-1.187,1.534a2.292,2.292,0,0,0,.55.743,3.005,3.005,0,0,1,.579,2.856,1.473,1.473,0,0,1,2.122.83,2.408,2.408,0,0,1-.791,2.393l-2.055.936c.762,1.524,2.171,1.36,2.923,2.894.135.27-.367,2.248-.087,2.373a1.33,1.33,0,0,0,.7.048l4.747-.55,1.013-3.27a11.156,11.156,0,0,1,1.746-3.83,3.8,3.8,0,0,1,3.714-1.5,2.582,2.582,0,0,1,3.126-3.02,10.2,10.2,0,0,0-.685-2.113,15.411,15.411,0,0,0,.01-7.052q2.026,5.441,4.052,10.892a43.873,43.873,0,0,0,9.059-1.7c-.058-.907-.116-1.823-.174-2.73.376,0,.743.01,1.119.01a9.33,9.33,0,0,1,.453-3.02,9.309,9.309,0,0,0-.376-5.132c1.5.724,3.2-.5,4.226-1.814s2.007-2.9,3.637-3.232c1.36-.27,3.145.289,3.878-.888a7.019,7.019,0,0,0,.405-1.09,3.089,3.089,0,0,1,2.769-1.708,9.118,9.118,0,0,1,3.338.7,3.065,3.065,0,0,1,1.351.753,3,3,0,0,1,.54,1.524,4.347,4.347,0,0,1-.077,2.412,1.516,1.516,0,0,1-1.978.888,3.9,3.9,0,0,0-.241-2.258,1.356,1.356,0,0,0-1.929-.569,1.69,1.69,0,0,0-.473.994c-.318,1.6.019,3.261-.2,4.882s-1.341,3.348-2.971,3.348c.212-1.216.434-2.431.646-3.647.1-.54.145-1.216-.309-1.534-.666-.482-1.534.415-1.63,1.235s.116,1.727-.338,2.412c-.588.868-1.958.888-2.537,1.765a1.92,1.92,0,0,0,.6,2.421,5.471,5.471,0,0,0,2.547.907c1.09.193,2.171.4,3.261.589,1.688.309,3.83,1.2,3.6,2.894,1.823-.424,3.637-.839,5.46-1.264a2.944,2.944,0,0,1,2.074-2.865,4.685,4.685,0,0,0-.936-2.421,4.95,4.95,0,0,1,2.325-1.273,1.708,1.708,0,0,1,2,1.322c1.881-1.177,1.5-4.139.164-5.895s-3.357-2.952-4.582-4.8-1.148-4.93.936-5.7c-.936-.965-1.872-1.929-2.817-2.894a16.414,16.414,0,0,0,5.142-.116,2.1,2.1,0,0,0,1.071-.424c.473-.434.492-1.158.666-1.785s.781-1.283,1.36-1c.83,2.354,1.717,4.775,3.434,6.58.791.83,1.833,1.8,1.5,2.9A3.2,3.2,0,0,1,88.7,288.61a5.048,5.048,0,0,0-1.978,3.087,2.6,2.6,0,0,0,1.794,2.9c1.167.241,2.663-.473,3.406.463a1.375,1.375,0,0,0,.849,1.843c-.338-2.46-.666-4.92-1-7.38,1.341.241,1.63-2.383,3-2.441.945-.039,1.409,1.177,2.267,1.563a1.494,1.494,0,0,0,2.016-1.283c0-.444-.193-.859-.232-1.293-.1-1.206.994-2.122,1.679-3.116C101.2,281.944,101.175,280.111,99.97,279.986ZM55.978,261.3a4.669,4.669,0,0,1-4.2,1.63c-.994-.145-1.92-.608-2.914-.675s-2.171.473-2.277,1.466c-.019.145-.01.3-.039.444a1.188,1.188,0,0,1-1.428.762,3.349,3.349,0,0,1-1.5-.955,17.01,17.01,0,0,0-5.547-3.946c-1.814-.685-4.2-1.437-3.463-4,.434-1.515,2.894-3.145,4.187-3.859,2.952-1.63,1.1,1.3,3.6,1.64a4.028,4.028,0,0,0,2.663-.878,8.8,8.8,0,0,1,2.479-1.409,3.424,3.424,0,0,1,3.772,1.592c.444.8.588,1.8,1.273,2.4,1.119.984,3.058.357,4.187,1.331A4.749,4.749,0,0,1,55.978,261.3Z" transform="translate(-0.844 -235.272)"/>
    </g>
    <path id="패스_1961" data-name="패스 1961" class="cls-2" d="M37.815,376.831a18.592,18.592,0,0,1,3.27-.241c1.2.019,2.769.164,3.6,1.177a7.706,7.706,0,0,0,.878,1.187c.839.733,2.383.492,2.933,1.466a2.661,2.661,0,0,1,.232,1.167,8.023,8.023,0,0,0,.627,2.547,2.192,2.192,0,0,1-.511,2.479,9.367,9.367,0,0,0-2.1,4.148c-.588,2.055-1.322,4.38-3.27,5.258a9.208,9.208,0,0,1-2.566.531c-3.685.482-7.12,2.132-10.738,3-4.959,1.187-10.139.888-15.233.675a5.983,5.983,0,0,0-2.865.357,2.092,2.092,0,0,0-1.245,2.364c-2.624-1.621-5.962-3.049-6.85-5.152-.743-1.756.531-1.013.1-1.659a3.735,3.735,0,0,1-.569-2.257c.338-2.431.55-3.56,2.827-4.5a7.285,7.285,0,0,0,2-.936c.868-.724,1.119-1.939,1.688-2.923.878-1.524,3.406-1.775,4.93-2.373,2.393-.926,4.795-1.814,7.236-2.586A110.07,110.07,0,0,1,37.815,376.831Z" transform="translate(139.393 547.247)"/>
    <path id="패스_1962" data-name="패스 1962" class="cls-1" d="M79.205,159.846,77.517,162.4a1.571,1.571,0,0,1-.8.675c-1.36.473-4.853,1.389-5.258-1.592,0,0-1.7-10.2-5.161-11.7a5.2,5.2,0,0,1,0-3.647s.309-2.19-.685-2.672a.35.35,0,0,1-.164-.5,2.266,2.266,0,0,1,3.434-.791s2.74,2.18,4.351,2.238a5.037,5.037,0,0,0,1.717-.116s-1.36,2.393-1.447,2.663a2.107,2.107,0,0,0-.164,1.081,2.164,2.164,0,0,0,.54.916c1.64,1.939,3.444,3.878,4.129,6.319.434,1.573.232,3.27,1.2,4.573Z" transform="translate(137.21 555.53)"/>
    <path id="패스_1963" data-name="패스 1963" class="cls-1" d="M79.352,160.51h0l-1.688,2.557a1.571,1.571,0,0,1-.8.675l-1.92,1.534c-1.524.984-.251,3.6-1.312,5.065-.318.434-.82.743-1,1.245-.3.82.434,1.659,1.187,2.1s1.65.81,2.026,1.6c.8,1.679-1.409,3.8-.424,5.383a2.036,2.036,0,0,0,2.933.241,4.013,4.013,0,0,0,1.187-3.01c.019-.791.164-1.881.955-1.9a1.079,1.079,0,0,1,.955.849c.135.434.125.907.251,1.351a2.29,2.29,0,0,0,4.332.232l.685-.781a10.335,10.335,0,0,1,1.939-7.631c.781-1.032,1.794-2.4,1.032-3.454-.579-.8-1.881-.791-2.441-1.611-.482-.714-.164-1.659-.174-2.518s-.666-2.248-1.36-1.737h0c-.347,1.061-2.045,1.187-3.164,1.264a3.383,3.383,0,0,1-2.9-1.38Z" transform="translate(136.957 554.867)"/>
    <g id="그룹_5910" data-name="그룹 5910" transform="translate(144.65 674.669)">
      <path id="패스_1964" data-name="패스 1964" class="cls-1" d="M84.332,176.156l-.685.781a2.29,2.29,0,0,1-4.332-.232c-.125-.444-.116-.907-.251-1.351a1.1,1.1,0,0,0-.955-.849c-.791.029-.936,1.119-.955,1.9a3.941,3.941,0,0,1-1.187,3.01,2.035,2.035,0,0,1-2.933-.241c-.984-1.582,1.216-3.695.424-5.383-.376-.791-1.273-1.148-2.026-1.6s-1.486-1.283-1.187-2.1c.183-.5.685-.81,1-1.245,1.061-1.466-.212-4.09,1.312-5.065l1.843-1.466c-1.466.482-4.679,1.206-5.065-1.65,0,0-1.7-10.2-5.161-11.7a5.2,5.2,0,0,1,0-3.647s.309-2.19-.685-2.672a.35.35,0,0,1-.164-.5,2.266,2.266,0,0,1,3.434-.791s2.74,2.18,4.351,2.238a5.183,5.183,0,0,0,1.756-.1,11.038,11.038,0,0,1,5.152-3.82,2.822,2.822,0,0,0,.994-.492A1.748,1.748,0,0,0,79,136.939a8.622,8.622,0,0,0-1.872-1.563,8.377,8.377,0,0,1-3.232-7.023l-.752-.145a16.236,16.236,0,0,1-5.663-2.846l-1.273-.7a.715.715,0,0,0-.424-.077,23.6,23.6,0,0,0-3.492,1.09,14.763,14.763,0,0,1-4.139.695,2.266,2.266,0,0,1-1.553-.376,1.551,1.551,0,0,1-.01-2.122,2.7,2.7,0,0,1,2.161-.752,6.024,6.024,0,0,0-2.518-.83,2.047,2.047,0,0,0-2.074,1.351c-.289,1.187.868,2.547.193,3.56a1.889,1.889,0,0,1-2.084.5l.617,1.216a11.252,11.252,0,0,0-4.679,2.2,5.989,5.989,0,0,1-.029,2.894,2.121,2.121,0,0,1-2.209,1.524c1.158-2.421.646-5.364-.6-7.747a5.64,5.64,0,0,0-3.145-3.02c-1.437-.405-3.28.482-3.377,1.968a3.881,3.881,0,0,0-.183-2.325c-.376-.695-1.418-1.071-1.968-.521-.347.347-.415.955-.839,1.206-.521.309-1.167-.116-1.621-.531-1.978-1.775-3.955-3.541-5.933-5.316a3.416,3.416,0,0,0-1.418-.9,1.188,1.188,0,0,0-1.409.637,4.268,4.268,0,0,0-.039.994c-.116,1.3-1.843,1.717-3.145,1.553s-2.817-.482-3.753.434a1.1,1.1,0,1,1-.55,2.045c.424.936,1.592,1.216,2.585,1.5s2.113.955,2.055,1.987c-.019.386-.222.752-.26,1.138s.183.868.579.859c-.907.193-1.823.386-2.73.589a3.037,3.037,0,0,0,1.052,2.209,7.88,7.88,0,0,1-2.885.27,1.563,1.563,0,0,0,.405,1.09,1.4,1.4,0,0,0-1.37-.733,2.983,2.983,0,0,0,.232,2.634c-.791.212-1.592.425-2.383.646-.039-2.576.068-5.489,1.987-7.216a12.5,12.5,0,0,1-3.377-4.669,17.553,17.553,0,0,0,.81,5.952,7.608,7.608,0,0,1-2.682.212,2.7,2.7,0,0,1-.4-1.92c-.588-.492-1.457.251-1.64,1s-.106,1.621-.637,2.171c.9.666.8,2.016.608,3.126-.087.482-.174.974-.251,1.457-.405-.917-.81-1.843-1.216-2.759-.482-.347-1.042.444-.907,1.023s.56,1.109.482,1.688c-.193,1.447-3.087,1.659-2.692,3.058.183.637.994.839,1.65.762a4.837,4.837,0,0,1,1.958-.116,1.565,1.565,0,0,1,.839,2.18c-.6.6-1.659-.087-2.441.222-.868.338-.762,1.785.048,2.248a2.394,2.394,0,0,0,2.6-.444,17.431,17.431,0,0,0,1.843-2.1,1.066,1.066,0,0,1,.473-.357c.463-.145.916.318,1.013.791a10.34,10.34,0,0,1,.01,1.447c.087,1.235,1.119,2.161,1.852,3.164s1.09,2.614.077,3.328a16.868,16.868,0,0,1,1.978,8.451,1.971,1.971,0,0,1,1.437,2.933,1.225,1.225,0,0,1,1.2,1.244c.656.039,1.3.077,1.958.125-.232-2.219-.473-4.428-.7-6.647-.569.289-1.283-.222-1.476-.839a4.9,4.9,0,0,1,.019-1.91,7.164,7.164,0,0,0-1.8-5.441c.068-.608.135-1.206.2-1.814a8.736,8.736,0,0,0,5.528,2.383c.087-.646.164-1.293.251-1.939,2.229,1.4-.289,5.46,1.524,7.371-.309-.029-.627-.068-.936-.1a3.383,3.383,0,0,0,2.73,1.958,4.42,4.42,0,0,0-1.052,5.46,13.441,13.441,0,0,0,5.895-2.846c-.232,1.64-2.122,2.373-3.656,3.01s-3.2,2.171-2.479,3.666c.154.328.424.627.376.984a3.575,3.575,0,0,1,3.309,3.155,4.526,4.526,0,0,0-2.875,1.544c.376.955,2.074.434,2.663,1.273a1.761,1.761,0,0,1,.039,1.466L28.011,179.1c.8.868,2.508-.357,3.348.463.617.608.048,1.727-.743,2.065a16.929,16.929,0,0,1-2.547.453c-.839.212-1.679,1.023-1.389,1.833a3.561,3.561,0,0,1,3,.492,1.507,1.507,0,0,0,.752.376c.579.019.907-.714,1.466-.859s1.071.328,1.409.781a9.432,9.432,0,0,1,1.794,4.544c1.138,1.409,2.277,2.807,3.406,4.216.637.791,1.872,1.611,2.518.83a3.908,3.908,0,0,0,.415-1.167c.714-1.881,3.936-1.023,5.19-2.6.752-.945.453-2.335.81-3.492.646-2.065,3.106-2.836,5.219-3.3,2.142-.473,4.573-.9,6.387.338,1.206.82,1.929,2.248,3.213,2.942,1.823.984,4.052.183,5.991-.56a11.715,11.715,0,0,1,5.084-1.061,4.5,4.5,0,0,1,4.023,2.856c.338,1.129.174,2.6,1.187,3.213.994.6,2.3-.2,3.415.1,1.852.5,2.248,3.666,4.168,3.656a2.091,2.091,0,0,0,1.833-1.852,6.1,6.1,0,0,0-.434-2.769c.4-.695,1.486-.251,2.036.338s1.283,1.341,2.007.994c.859-.415.54-2.093.888-2.981-2.248-1.389-2.2-4.467-1.669-7.052.232-1.109.656-2.3.154-3.319-1.042-2.132-4.515-1.042-6.425-2.47h-.183Z" transform="translate(-5.322 -118.315)"/>
      <path id="패스_1965" data-name="패스 1965" class="cls-1" d="M95.547,191.568c-.125-.116-.058-.058,0,0Z" transform="translate(-8.501 -120.895)"/>
    </g>
    <path id="패스_1946" data-name="패스 1946" class="cls-1" d="M57.5,73.8a1.65,1.65,0,0,0,.338-.849,4.045,4.045,0,0,1,2.084-2.624c.415.569.839,1.129,1.254,1.7.56-.434,1.119-.868,1.688-1.3a.9.9,0,0,1,.772-.27.857.857,0,0,1,.424.473,6.741,6.741,0,0,1,1.013,3.29c-.039,1.167-.617,2.248-.752,3.4s.492,2.586,1.659,2.614c.83.019,1.823-.637,2.373-.029a1.272,1.272,0,0,1,.26.608,4.052,4.052,0,0,1-1.447,3.859c-.521.405-1.138.685-1.64,1.109a18.647,18.647,0,0,0-2.016,2.692c-.714.868-1.958,1.534-2.942.974A4.9,4.9,0,0,1,59.8,88.8a3.965,3.965,0,0,0-3.946-.714,10.029,10.029,0,0,1-1.9.762c-1.534.232-1.109-1.293-2.045-2.528-.453-.6-2.585-1.052-3.039-1.65-.752-.994-2.547-3.57-1.1-4.6.453-.318,1.5-.058,2.093-.492a3.144,3.144,0,0,0,.888-1.206c.656-1.225.9-2.441,2.036-3.386a4.367,4.367,0,0,1,2.267-1C55.748,73.89,56.945,74.363,57.5,73.8Z" transform="translate(137.85 558.047)"/>
  </g>
</svg>
